/* XPM */
static char * bg_xpm[] = {
"32 32 401 2",
"  	c #F5FFE8",
". 	c #F6FFE9",
"+ 	c #F4FEE7",
"@ 	c #D5E0D1",
"# 	c #8C9CA3",
"$ 	c #496684",
"% 	c #486584",
"& 	c #4C6784",
"* 	c #4C6985",
"= 	c #4D7D96",
"- 	c #4E99AE",
"; 	c #4AA3B8",
"> 	c #52A5B9",
", 	c #99C4C7",
"' 	c #DCEEDE",
") 	c #F7FFE9",
"! 	c #D6EADC",
"~ 	c #8FBFC5",
"{ 	c #48A2B7",
"] 	c #4DA3B8",
"^ 	c #98C3C7",
"/ 	c #DCEDDE",
"( 	c #F6FFE8",
"_ 	c #DFF9DE",
": 	c #B1EECB",
"< 	c #92E8C0",
"[ 	c #91E8C0",
"} 	c #E1FADF",
"| 	c #E2FBDF",
"1 	c #E1F9DE",
"2 	c #CEE4D0",
"3 	c #AABBB5",
"4 	c #94A2A7",
"5 	c #93A1A6",
"6 	c #83939D",
"7 	c #60778D",
"8 	c #467490",
"9 	c #498CA3",
"0 	c #65A3B4",
"a 	c #89B9C1",
"b 	c #B0D4CE",
"c 	c #D3EED9",
"d 	c #CFECD8",
"e 	c #ABD1CC",
"f 	c #93C0C6",
"g 	c #95C1C6",
"h 	c #AFD3CE",
"i 	c #D2EED9",
"j 	c #E2FADF",
"k 	c #CDF1D6",
"l 	c #A2E2C7",
"m 	c #84D9BE",
"n 	c #83D9BE",
"o 	c #85D9BE",
"p 	c #B4EFCC",
"q 	c #B4EECC",
"r 	c #C0EBCE",
"s 	c #D0E6D1",
"t 	c #D9E4D4",
"u 	c #D7E2D3",
"v 	c #BCC9C0",
"w 	c #7F919C",
"x 	c #466A88",
"y 	c #4C7791",
"z 	c #8AA6AE",
"A 	c #C3D8CF",
"B 	c #BEEED0",
"C 	c #B3EFCC",
"D 	c #BFEED1",
"E 	c #D0ECD9",
"F 	c #D9EBDD",
"G 	c #D8EBDC",
"H 	c #B5EFCC",
"I 	c #A3E1C7",
"J 	c #7FC8BF",
"K 	c #66B9BA",
"L 	c #67BABA",
"M 	c #86D9BE",
"N 	c #A7E4C8",
"O 	c #D1F3D8",
"P 	c #CEE5D0",
"Q 	c #92A0A5",
"R 	c #B0C2BA",
"S 	c #D2E9D3",
"T 	c #CCF1D6",
"U 	c #83D9BD",
"V 	c #A6E3C8",
"W 	c #D0F3D8",
"X 	c #A2E2C6",
"Y 	c #85DABE",
"Z 	c #79CCBC",
"` 	c #60B3B9",
" .	c #4FA4B8",
"..	c #4EA4B8",
"+.	c #4FA5B8",
"@.	c #64B9BA",
"#.	c #62B8B9",
"$.	c #65B9BA",
"%.	c #83CBC0",
"&.	c #A7E5C8",
"*.	c #B5F0CD",
"=.	c #B6F0CD",
"-.	c #C0ECCF",
";.	c #D1E6D2",
">.	c #D9E3D4",
",.	c #D9E3D3",
"'.	c #D0E7D1",
").	c #BEECCE",
"!.	c #7DC8BE",
"~.	c #63B9BA",
"{.	c #82CABF",
"].	c #A6E4C8",
"^.	c #B6F0CC",
"/.	c #A3E2C7",
"(.	c #7EC8BE",
"_.	c #63B8B9",
":.	c #5EB3B9",
"<.	c #54A9B8",
"[.	c #4EA3B8",
"}.	c #50A5B8",
"|.	c #63B6BA",
"1.	c #7BCFBD",
"2.	c #86DABE",
"3.	c #A7E3C8",
"4.	c #A1E1C6",
"5.	c #78CCBC",
"6.	c #5DB2B9",
"7.	c #62B5BA",
"8.	c #7BCEBD",
"9.	c #4FA5B9",
"0.	c #4FA1B5",
"a.	c #4E9BB0",
"b.	c #4E97AD",
"c.	c #55AAB8",
"d.	c #5FB4B9",
"e.	c #65BABA",
"f.	c #83CBBF",
"g.	c #7DC7BE",
"h.	c #5DB3B9",
"i.	c #52A8B8",
"j.	c #4E9AAF",
"k.	c #4D879E",
"l.	c #4D7B95",
"m.	c #4A96AC",
"n.	c #4A95AC",
"o.	c #4B9AB0",
"p.	c #4EA1B6",
"q.	c #4AA2B7",
"r.	c #4BA3B7",
"s.	c #4CA3B8",
"t.	c #4E98AD",
"u.	c #4E8CA3",
"v.	c #4D7690",
"w.	c #4C6885",
"x.	c #4C7B95",
"y.	c #4C7B94",
"z.	c #4C7C95",
"A.	c #4D89A0",
"B.	c #4E9CB1",
"C.	c #64BABA",
"D.	c #53A8B8",
"E.	c #4D7C95",
"F.	c #4D7B94",
"G.	c #4C6D89",
"H.	c #92A1A6",
"I.	c #829EA8",
"J.	c #6198AB",
"K.	c #4996AC",
"L.	c #4C9AB0",
"M.	c #4DA4B8",
"N.	c #67ACBC",
"O.	c #87BAC3",
"P.	c #94C1C6",
"Q.	c #93C1C6",
"R.	c #84B6BF",
"S.	c #62A1B3",
"T.	c #4995AC",
"U.	c #4B97AD",
"V.	c #4D97AD",
"W.	c #4B6785",
"X.	c #496584",
"Y.	c #D8E3D3",
"Z.	c #D7E2D2",
"`.	c #BCCBC3",
" +	c #7F9BA5",
".+	c #4A7A94",
"++	c #497B94",
"@+	c #8ABCC3",
"#+	c #C3DDD5",
"$+	c #D9ECDD",
"%+	c #BED3CB",
"&+	c #81A0A9",
"*+	c #4B7B94",
"=+	c #497A94",
"-+	c #4D7791",
";+	c #4B6684",
">+	c #4B6784",
",+	c #A9BAB5",
"'+	c #91A0A5",
")+	c #6199AB",
"!+	c #4895AC",
"~+	c #64A3B4",
"{+	c #88B8C1",
"]+	c #AFD4CE",
"^+	c #D3EEDA",
"/+	c #E1F9DF",
"(+	c #CFE5D1",
"_+	c #AABBB6",
":+	c #466483",
"<+	c #476583",
"[+	c #647A8E",
"}+	c #85959E",
"|+	c #C1ECCF",
"1+	c #D1E6D1",
"2+	c #D8E2D2",
"3+	c #7F9BA6",
"4+	c #457893",
"5+	c #D0EDD8",
"6+	c #BFEFD1",
"7+	c #B5F0CC",
"8+	c #B6EFCC",
"9+	c #C0ECCE",
"0+	c #BEC9C1",
"a+	c #81919C",
"b+	c #466382",
"c+	c #8798A0",
"d+	c #C2CDC4",
"e+	c #87DABE",
"f+	c #A8E4C9",
"g+	c #E3FBE0",
"h+	c #E2F9DF",
"i+	c #909EA4",
"j+	c #AFC1B9",
"k+	c #E3FBDF",
"l+	c #909FA5",
"m+	c #ADBFB8",
"n+	c #D2E8D3",
"o+	c #63B9B9",
"p+	c #84CCC0",
"q+	c #A8E5C9",
"r+	c #B7F0CD",
"s+	c #D8E2D3",
"t+	c #CFE7D1",
"u+	c #A7E5C9",
"v+	c #D0E6D2",
"w+	c #CFE6D1",
"x+	c #BFEDCE",
"y+	c #7CCFBD",
"z+	c #84DABE",
"A+	c #87DABF",
"B+	c #E3FADF",
"C+	c #CDF2D6",
"D+	c #5EB2B9",
"E+	c #60B5B9",
"F+	c #66BABA",
"G+	c #B7F1CD",
"H+	c #A4E2C8",
"I+	c #82CBBF",
"J+	c #A7E4C9",
"K+	c #A5E2C8",
"L+	c #7FC9BF",
"M+	c #4FA2B6",
"N+	c #61B6BA",
"O+	c #87DBBE",
"P+	c #5FB3B9",
"Q+	c #4E9CB0",
"R+	c #7ACDBD",
"S+	c #60B3BA",
"T+	c #4E8AA1",
"U+	c #4F9CB1",
"V+	c #54AAB8",
"W+	c #4D879F",
"X+	c #4C6986",
"Y+	c #4B7892",
"Z+	c #4B8EA4",
"`+	c #499AB0",
" @	c #4CA1B5",
".@	c #68ADBC",
"+@	c #86BAC2",
"@@	c #83B8C2",
"#@	c #62ABBB",
"$@	c #4FA1B6",
"%@	c #4E8CA2",
"&@	c #4D7892",
"*@	c #4E8EA5",
"=@	c #4CA4B8",
"-@	c #4C7892",
";@	c #4888A0",
">@	c #509DB1",
",@	c #8CBDC4",
"'@	c #C2DDD5",
")@	c #BDD9D3",
"!@	c #80B7C1",
"~@	c #4C6C88",
"{@	c #4D889F",
"]@	c #657A8E",
"^@	c #84959F",
"/@	c #90A9AF",
"(@	c #93BABF",
"_@	c #CFEBD8",
":@	c #A9CFCC",
"<@	c #92C0C6",
"[@	c #91BFC5",
"}@	c #82B5BF",
"|@	c #61A1B2",
"1@	c #4A8BA2",
"2@	c #4B758F",
"3@	c #4E8FA5",
"4@	c #4D98AD",
"5@	c #66A4B4",
"6@	c #85B7C0",
"7@	c #83B6BF",
"8@	c #63A2B3",
"9@	c #498AA2",
"0@	c #47738F",
"a@	c #4E6A86",
"b@	c #8999A1",
"c@	c #C2CEC4",
"d@	c #D8E5D6",
"e@	c #D8E9DA",
"f@	c #CEECD8",
"g@	c #C1EED1",
"h@	c #D7EADC",
"i@	c #BCD2CB",
"j@	c #7F9EA9",
"k@	c #4A7590",
"l@	c #496A88",
"m@	c #4C6785",
"n@	c #4C6E89",
"o@	c #477994",
"p@	c #89A6AE",
"q@	c #C1D6CE",
"r@	c #BED3CC",
"s@	c #82A1AB",
"t@	c #476A87",
"u@	c #4A6684",
"v@	c #AEC0B9",
"w@	c #D3E9D3",
"x@	c #CBF1D6",
"y@	c #A8E4C8",
"z@	c #A8B9B4",
"A@	c #80919C",
"B@	c #5E758C",
"C@	c #476483",
"D@	c #637A8E",
"E@	c #84949E",
"F@	c #8F9EA4",
"G@	c #AABCB6",
"H@	c #919FA5",
"I@	c #CEE6D1",
"J@	c #B8F1CD",
"K@	c #83CCC0",
"L@	c #B8F0CD",
"M@	c #C2EDCF",
"N@	c #D0E4D0",
"O@	c #BCC8C0",
"P@	c #7F909B",
"Q@	c #486684",
"R@	c #4A6784",
"S@	c #87979F",
"T@	c #C1CDC3",
"U@	c #C1ECCE",
"V@	c #D0E5D1",
"W@	c #86DBBE",
"X@	c #88DBBF",
"Y@	c #A9E5C9",
"Z@	c #D1F2D8",
"`@	c #CFE4D0",
" #	c #E3FAE0",
".#	c #A3E3C7",
"+#	c #D0F2D7",
"@#	c #66BBBA",
"##	c #D7E1D2",
"$#	c #BFEDCF",
"%#	c #B8F1CE",
"&#	c #80C9BF",
"*#	c #79CCBD",
"=#	c #61B6B9",
"-#	c #7ED0BD",
";#	c #D2F3D8",
">#	c #61B4BA",
",#	c #7ACEBC",
"'#	c #53A9B8",
")#	c #A5E3C8",
"!#	c #64BAB9",
"~#	c #50A4B8",
"{#	c #85BAC2",
"]#	c #91C0C5",
"^#	c #4FA3B8",
"/#	c #65BBBA",
"(#	c #88BBC3",
"_#	c #C0DBD4",
":#	c #D6E9DC",
"<#	c #4E95AB",
"[#	c #4D7993",
"}#	c #4D7E97",
"|#	c #4AA3B7",
"1#	c #51A5B8",
"2#	c #97C3C7",
"3#	c #DBEDDD",
"4#	c #F4FEE8",
"      . + @ # $ % & * = - ; > , ' )   ! ~ { ] ^ / . ( _ : < [ < ",
"} } } | 1 2 3 4 5 6 7 8 9 0 a b c | } d e f g h i j } k l m n o ",
"p p p p q r s t u v w x y z A d B C p D E F G d B H q I J K K L ",
"o o o n M N O | 1 P 3 Q 4 R S T l U o V W j } k X Y n Z `  ...+.",
"@.@.@.#.$.%.&.*.=.-.;.>.,.'.).I !.#.~.{.].^.H /.(.@._.:.<.[.[.[.",
"+.+.+...}.|.1.m 2.3.O j } T 4.5.6.[. .7.8.2.o Z `  ...9. .0.a.b.",
"[.[.[.[.[.c.d.#.e.f.&.=.*./.g.h.i.] [.c.d.@.@.:.<.[.[... .j.k.l.",
"m.n.m.o.p.9.9...}.|.1.2.o 5.6.q.q.r.r.s...+.+.9. .0.a.t.b.u.v.w.",
"x.y.z.A.B. ...[.[.c.d.C.@.:.D.] [.......[.[.[... .j.k.E.F.v.G.& ",
"5 5 H.I.J.K.K.L.p.9.9.M.M.N.O.P.P.P.Q.R.S.K.T.U.V.u.v.W.X.% % % ",
"Y.t Z.`. +.+++A.B. ...q. .@+#+F $+$+G %+&+*+=+z.E.-+G.& ;+>+W.W.",
"} | 1 2 ,+Q '+I.)+!+m.~+{+]+^+j j | /+(+_+5 '+6 7 :+<+[+}+5 5 H.",
"=.*.=.|+1+,.2+`.3+4+x.z A 5+6+^.^.7+8+9+1+>.2+0+a+b+$ c+d+Y.t Y.",
"2.m e+f+O g+h+2 ,+i+H.j+S k l Y m m 2.3.W k+j (+_+l+Q m+n+j j j ",
"@.o+e.p+q+=.r+|+1+s+s+t+)./.!.@.~.o+e.f.u+=.r+-.v+s+Y.w+x+=.=.=.",
"+...}.|.y+z+A+f+O B+j C+4.5.D+ . ...}.|.y+z+e+3.W B+j k /.Y m 2.",
"[.] [.c.E+o+F+p+q+G+=.H+!.:.i.[.[.] [.c.E+o+e.I+J+G+r+K+L+@.~.C.",
"t.B.M+ . .] M.N+y+O+2.Z P+ ...0.a.Q+M+ . .[.}.|.1.O+2.R+S+ . .+.",
"= T+U+ ...] ] V+E+e.C.P+<...[.j.W+A.Q+ ...] [.c.E+e.e.d.<.[.[.[.",
"X+Y+Z+`+ @.@+@@@#@r.r.M...$@a.%@v.&@*@U+M+ .+.+.+...=@=@..0.a.t.",
"& G.-@;@>@,@'@)@!@q.q.] ..j.k.v.~@G.&@A.U+ . . .[.] ] ] ..j.{@E.",
"$ ]@^@/@(@b ^+_@:@<@[@}@|@1@2@w.w.& * &@3@4@U.K.U.5@6@7@8@9@0@% ",
"a@b@c@d@e@f@6+g@E F h@i@j@k@l@& w.m@m@n@&@z.z.o@E.p@q@r@s@k@t@u@",
"H.v@w@g+j x@l y@O g+j (+z@A@B@<+C@% % :+$ D@E@F@H.v@n+s G@l+F@H@",
"Z.I@x+J@=.I (.K@q+r+L@M@N@O@P@Q@<+R@R@:+& S@T@2+s+I@9+U@V@Z.Z.Z.",
"/+T X W@Y Z S+|.y+Y X@Y@Z@`@,+i+F@l+l+F@'+m+n+ #j k .#].+#j B+j ",
"r+H+(.C.@.:.<.c.E+o+@#K@Y@|+s Z.Z.Z.Z.##Z.w+$#%#r+K+&#I+J+r+%#r+",
"2.*#S+ . .+.+.+.+. .}.=#-#f+;#j B+j j B+j k /.O+Y R+>#7.,#Y Y Y ",
"e.d.<.[.[.[. . .[.] [.'#=#p+Y@%#%#r+r+%#r+)#L+e.C.d.<.V+d.!#C.!#",
"~# . .0.a.t.t.t.t.B.$@[.}.|.y+e+e+2.2.O+2.R+S+ . ...~#N.{#]#]#]#",
"[...^#j.k.= E.E.= T+U+....c.E+e.e.e.e./#e.d.<.[.] q.~#(#_#:#h@:#",
" .9. .<#[#w.w.w.X+}#-  . . .}.}.}.}.}.}.}.~# . . .|#1#2#3#    4#"};
