/* XPM */
static char * coin_xpm[] = {
"16 16 5 1",
" 	c #C8D45D",
".	c #14182E",
"+	c #FFC2A1",
"@	c #F5FFE8",
"#	c #E64539",
"                ",
"                ",
"                ",
"                ",
"      ....      ",
"     .++++.     ",
"    .+@###+.    ",
"    .+####+.    ",
"    .+####+.    ",
"    .+####+.    ",
"     .++++.     ",
"      ....      ",
"                ",
"                ",
"                ",
"                "};
