/* XPM */
static char * coin_xpm[] = {
"32 32 537 2",
"  	c #F5FFE8",
". 	c #F6FFE9",
"+ 	c #F4FEE7",
"@ 	c #D5E0D1",
"# 	c #8C9CA3",
"$ 	c #496684",
"% 	c #486584",
"& 	c #4C6784",
"* 	c #4C6985",
"= 	c #4B768D",
"- 	c #487B8D",
"; 	c #437687",
"> 	c #487788",
", 	c #7E9EA1",
"' 	c #CFE0D1",
") 	c #F7FFE9",
"! 	c #D6EADC",
"~ 	c #8FBFC5",
"{ 	c #48A2B7",
"] 	c #4DA3B8",
"^ 	c #98C3C7",
"/ 	c #DCEDDE",
"( 	c #F6FFE8",
"_ 	c #DFF9DE",
": 	c #B1EECB",
"< 	c #92E8C0",
"[ 	c #91E8C0",
"} 	c #E1FADF",
"| 	c #E2FBDF",
"1 	c #E1F9DE",
"2 	c #CEE4D0",
"3 	c #AABBB5",
"4 	c #94A2A7",
"5 	c #93A1A6",
"6 	c #83939D",
"7 	c #5F768B",
"8 	c #48677F",
"9 	c #4E5460",
"0 	c #503539",
"a 	c #717876",
"b 	c #BACFBE",
"c 	c #DFF8DC",
"d 	c #E0F9DE",
"e 	c #CFECD8",
"f 	c #ABD1CC",
"g 	c #93C0C6",
"h 	c #95C1C6",
"i 	c #AED2CD",
"j 	c #D0EBD6",
"k 	c #DFF7DC",
"l 	c #CDF1D6",
"m 	c #A2E2C7",
"n 	c #84D9BE",
"o 	c #83D9BE",
"p 	c #85D9BE",
"q 	c #B4EFCC",
"r 	c #B4EECC",
"s 	c #C0EBCE",
"t 	c #D0E6D1",
"u 	c #D9E4D4",
"v 	c #D7E2D3",
"w 	c #B1BDB5",
"x 	c #6A757F",
"y 	c #766164",
"z 	c #B07C5F",
"A 	c #C4855B",
"B 	c #BB9070",
"C 	c #9DA38C",
"D 	c #92C0A5",
"E 	c #AAE0C0",
"F 	c #BFEED1",
"G 	c #D0ECD9",
"H 	c #D9EBDD",
"I 	c #D8EBDC",
"J 	c #C4DFCC",
"K 	c #9CC0A9",
"L 	c #93BFA4",
"M 	c #A9DFBF",
"N 	c #A3E1C7",
"O 	c #7FC8BF",
"P 	c #66B9BA",
"Q 	c #67BABA",
"R 	c #86D9BE",
"S 	c #A7E4C8",
"T 	c #D1F3D8",
"U 	c #E1FADE",
"V 	c #DFF6DC",
"W 	c #B5C7B5",
"X 	c #6D6A69",
"Y 	c #98674C",
"Z 	c #E49B66",
"` 	c #FFAE70",
" .	c #E39B66",
"..	c #97664B",
"+.	c #5E796D",
"@.	c #79BDA6",
"#.	c #A4E1C6",
"$.	c #CFF2D7",
"%.	c #DFF7DD",
"&.	c #B6D4BD",
"*.	c #6C8174",
"=.	c #5E776C",
"-.	c #76BCA5",
";.	c #78CABA",
">.	c #60B2B8",
",.	c #4FA4B8",
"'.	c #4EA4B8",
").	c #4FA5B8",
"!.	c #64B9BA",
"~.	c #62B8B9",
"{.	c #65B9BA",
"].	c #83CBC0",
"^.	c #A7E5C8",
"/.	c #AAE1C0",
"(.	c #94C0A6",
"_.	c #9FA28B",
":.	c #BB8E6E",
"<.	c #D59161",
"[.	c #F2A56B",
"}.	c #D59160",
"|.	c #B18568",
"1.	c #7D867F",
"2.	c #6DA29B",
"3.	c #9DD6BC",
"4.	c #ACE2C1",
"5.	c #95C1A6",
"6.	c #919D87",
"7.	c #B1896B",
"8.	c #B18567",
"9.	c #7E867E",
"0.	c #528F95",
"a.	c #519EAC",
"b.	c #4EA3B8",
"c.	c #4EA3B7",
"d.	c #50A3B6",
"e.	c #62B4B8",
"f.	c #7ACDBB",
"g.	c #77BCA6",
"h.	c #5E786C",
"i.	c #FEAD70",
"j.	c #FDAD70",
"k.	c #E29965",
"l.	c #94634B",
"m.	c #4D656B",
"n.	c #6FB3A5",
"o.	c #7AC0A8",
"p.	c #5F7C70",
"q.	c #93644A",
"r.	c #E19965",
"s.	c #E59C66",
"t.	c #9A684C",
"u.	c #4D5D69",
"v.	c #4E8FA0",
"w.	c #4F9FB3",
"x.	c #4E9AAF",
"y.	c #4E97AD",
"z.	c #4C99AD",
"A.	c #488395",
"B.	c #4A7C88",
"C.	c #4F8389",
"D.	c #7D867E",
"E.	c #B18668",
"F.	c #F7A76E",
"G.	c #E8986B",
"H.	c #DF8F69",
"I.	c #D08464",
"J.	c #AB6758",
"K.	c #855F62",
"L.	c #66797D",
"M.	c #7A8780",
"N.	c #AF8569",
"O.	c #D49060",
"P.	c #F1A46B",
"Q.	c #F3A56B",
"R.	c #D69161",
"S.	c #B08267",
"T.	c #7A7B7E",
"U.	c #487C8E",
"V.	c #4B7E94",
"W.	c #4D7B95",
"X.	c #4A96AC",
"Y.	c #4A95AB",
"Z.	c #4B8699",
"`.	c #4C5B67",
" +	c #4B3238",
".+	c #E49C66",
"++	c #EF9F6C",
"@+	c #D07F66",
"#+	c #BD6A62",
"$+	c #BC6961",
"%+	c #A85E59",
"&+	c #734245",
"*+	c #91614A",
"=+	c #E09865",
"-+	c #4C525E",
";+	c #4C687E",
">+	c #4C7B95",
",+	c #4A738B",
"'+	c #46657A",
")+	c #796F71",
"!+	c #B08165",
"~+	c #C3845A",
"{+	c #E09069",
"]+	c #D88767",
"^+	c #C67564",
"/+	c #B3645E",
"(+	c #9B5854",
"_+	c #8E514F",
":+	c #915250",
"<+	c #A96657",
"[+	c #CF8363",
"}+	c #F3A66B",
"|+	c #796364",
"1+	c #46556D",
"2+	c #92A0A5",
"3+	c #838C91",
"4+	c #605B60",
"5+	c #99684C",
"6+	c #CF7E66",
"7+	c #BB6961",
"8+	c #A75E59",
"9+	c #704144",
"0+	c #6E4044",
"a+	c #A65E59",
"b+	c #CF7E65",
"c+	c #96654B",
"d+	c #403D50",
"e+	c #AFB6AA",
"f+	c #AB9E8E",
"g+	c #BC8C6D",
"h+	c #B2645E",
"i+	c #9B5754",
"j+	c #8E504F",
"k+	c #7F494A",
"l+	c #5A363D",
"m+	c #59363D",
"n+	c #7F4849",
"o+	c #B2645D",
"p+	c #C67464",
"q+	c #D78767",
"r+	c #C98160",
"s+	c #865648",
"t+	c #403E50",
"u+	c #80887D",
"v+	c #97694F",
"w+	c #E49C67",
"x+	c #FEAD6F",
"y+	c #BC6962",
"z+	c #6F4044",
"A+	c #3D2936",
"B+	c #A65D59",
"C+	c #AA605A",
"D+	c #744345",
"E+	c #59585F",
"F+	c #97C4A9",
"G+	c #9BA98E",
"H+	c #B38E6D",
"I+	c #D18E5F",
"J+	c #7F4949",
"K+	c #797874",
"L+	c #86DABE",
"M+	c #76BEA7",
"N+	c #56776C",
"O+	c #96684E",
"P+	c #E39B67",
"Q+	c #EE9E6C",
"R+	c #BC6A62",
"S+	c #3D2937",
"T+	c #3D2A38",
"U+	c #3D2B38",
"V+	c #6E4043",
"W+	c #A65D58",
"X+	c #A9605A",
"Y+	c #734548",
"Z+	c #7D857B",
"`+	c #5FAEAE",
" @	c #589899",
".@	c #879486",
"+@	c #B28C6C",
"@@	c #BD7B5B",
"#@	c #BD7060",
"$@	c #3F3647",
"%@	c #43495F",
"&@	c #455168",
"*@	c #3F3747",
"=@	c #B4655E",
"-@	c #9D5855",
";@	c #825D61",
">@	c #61727F",
",@	c #6DA09E",
"'@	c #50A4B7",
")@	c #5B9EA3",
"!@	c #536F6A",
"~@	c #744346",
"{@	c #402A37",
"]@	c #3E2A38",
"^@	c #414154",
"/@	c #495D78",
"(@	c #4C6885",
"_@	c #495E78",
":@	c #414155",
"<@	c #6D4145",
"[@	c #A65F5A",
"}@	c #A9615C",
"|@	c #425C6A",
"1@	c #4C90A1",
"2@	c #60B3B9",
"3@	c #4B99AD",
"4@	c #488496",
"5@	c #64747D",
"6@	c #856162",
"7@	c #9E5955",
"8@	c #825257",
"9@	c #5F5163",
"0@	c #475770",
"a@	c #4A637F",
"b@	c #5F6275",
"c@	c #837F8B",
"d@	c #868894",
"e@	c #63808F",
"f@	c #4C8A98",
"g@	c #55A3AE",
"h@	c #5DB2B9",
"i@	c #4E97AC",
"j@	c #4A889B",
"k@	c #445967",
"l@	c #A9696C",
"m@	c #76687D",
"n@	c #4D6885",
"o@	c #4C6986",
"p@	c #4D7A93",
"q@	c #47667C",
"r@	c #626270",
"s@	c #845B60",
"t@	c #B36A67",
"u@	c #9F6971",
"v@	c #866979",
"w@	c #646881",
"x@	c #4C728D",
"y@	c #4D839B",
"z@	c #4E8BA1",
"A@	c #4E91A7",
"B@	c #4F9EB2",
"C@	c #51A6B8",
"D@	c #413F51",
"E@	c #744347",
"F@	c #AA605B",
"G@	c #BD6A63",
"H@	c #A96A6D",
"I@	c #75697E",
"J@	c #4D7B94",
"K@	c #4E98AD",
"L@	c #4FA1B5",
"M@	c #4E9BB0",
"N@	c #47566E",
"O@	c #636778",
"P@	c #87828E",
"Q@	c #938B95",
"R@	c #858B99",
"S@	c #648B9E",
"T@	c #4E8AA1",
"U@	c #4E8AA2",
"V@	c #4E8EA5",
"W@	c #4FA0B5",
"X@	c #4D889F",
"Y@	c #4D7C95",
"Z@	c #60879B",
"`@	c #5EA1B3",
" #	c #4D7C94",
".#	c #4D7892",
"+#	c #4E8FA5",
"@#	c #4D98AD",
"##	c #4B97AD",
"$#	c #4996AC",
"%#	c #66A4B4",
"&#	c #85B7C0",
"*#	c #83B6BF",
"=#	c #63A2B3",
"-#	c #498AA2",
";#	c #47738F",
">#	c #4E6A86",
",#	c #839BA4",
"'#	c #A2BFC0",
")#	c #A6C8C8",
"!#	c #A6CBCA",
"~#	c #9FCCC9",
"{#	c #95CEC5",
"]#	c #96CEC5",
"^#	c #A1CCC9",
"/#	c #A7CCCC",
"(#	c #A6CBCB",
"_#	c #93BDC2",
":#	c #6AA1B1",
"<#	c #4D8FA5",
"[#	c #4C8BA2",
"}#	c #4D829B",
"|#	c #4C718D",
"1#	c #4C6E89",
"2#	c #4C7C95",
"3#	c #477994",
"4#	c #89A6AE",
"5#	c #C1D6CE",
"6#	c #BED3CC",
"7#	c #82A1AB",
"8#	c #4A7590",
"9#	c #476A87",
"0#	c #4A6684",
"a#	c #92A1A6",
"b#	c #AEC0B9",
"c#	c #D3E9D3",
"d#	c #E3FBE0",
"e#	c #E2FADF",
"f#	c #CBF1D6",
"g#	c #A8E4C8",
"h#	c #CFE5D1",
"i#	c #A8B9B4",
"j#	c #80919C",
"k#	c #5E758C",
"l#	c #476583",
"m#	c #476483",
"n#	c #466483",
"o#	c #637A8E",
"p#	c #84949E",
"q#	c #8F9EA4",
"r#	c #D2E8D3",
"s#	c #AABCB6",
"t#	c #909FA5",
"u#	c #919FA5",
"v#	c #D7E2D2",
"w#	c #CEE6D1",
"x#	c #BFEDCE",
"y#	c #B8F1CD",
"z#	c #B6F0CD",
"A#	c #7EC8BE",
"B#	c #83CCC0",
"C#	c #A8E5C9",
"D#	c #B7F0CD",
"E#	c #B8F0CD",
"F#	c #C2EDCF",
"G#	c #D0E4D0",
"H#	c #BCC8C0",
"I#	c #7F909B",
"J#	c #486684",
"K#	c #4A6784",
"L#	c #87979F",
"M#	c #C1CDC3",
"N#	c #D8E2D2",
"O#	c #D8E2D3",
"P#	c #C0ECCE",
"Q#	c #C1ECCE",
"R#	c #D0E5D1",
"S#	c #E1F9DF",
"T#	c #CCF1D6",
"U#	c #A2E2C6",
"V#	c #86DBBE",
"W#	c #85DABE",
"X#	c #79CCBC",
"Y#	c #60B3BA",
"Z#	c #63B6BA",
"`#	c #7CCFBD",
" $	c #88DBBF",
".$	c #A9E5C9",
"+$	c #D1F2D8",
"@$	c #CFE4D0",
"#$	c #A9BAB5",
"$$	c #909EA4",
"%$	c #91A0A5",
"&$	c #ADBFB8",
"*$	c #E3FAE0",
"=$	c #A3E3C7",
"-$	c #A6E4C8",
";$	c #D0F2D7",
">$	c #E3FADF",
",$	c #A4E2C8",
"'$	c #64BABA",
")$	c #5EB3B9",
"!$	c #54A9B8",
"~$	c #55AAB8",
"{$	c #60B5B9",
"]$	c #63B9B9",
"^$	c #66BBBA",
"/$	c #C1ECCF",
"($	c #D7E1D2",
"_$	c #CFE6D1",
":$	c #BFEDCF",
"<$	c #B8F1CE",
"[$	c #A5E2C8",
"}$	c #80C9BF",
"|$	c #82CBBF",
"1$	c #A7E4C9",
"2$	c #79CCBD",
"3$	c #50A5B8",
"4$	c #61B6B9",
"5$	c #7ED0BD",
"6$	c #A8E4C9",
"7$	c #D2F3D8",
"8$	c #A3E2C7",
"9$	c #87DBBE",
"0$	c #7ACDBD",
"a$	c #61B4BA",
"b$	c #62B5BA",
"c$	c #7ACEBC",
"d$	c #65BABA",
"e$	c #5FB4B9",
"f$	c #53A9B8",
"g$	c #84CCC0",
"h$	c #A5E3C8",
"i$	c #7FC9BF",
"j$	c #54AAB8",
"k$	c #64BAB9",
"l$	c #50A4B8",
"m$	c #4E9CB1",
"n$	c #4FA1B6",
"o$	c #87DABE",
"p$	c #67ACBC",
"q$	c #85BAC2",
"r$	c #91C0C5",
"s$	c #4FA3B8",
"t$	c #4D879E",
"u$	c #4D7D96",
"v$	c #4F9CB1",
"w$	c #65BBBA",
"x$	c #4AA2B7",
"y$	c #88BBC3",
"z$	c #C0DBD4",
"A$	c #D6E9DC",
"B$	c #D7EADC",
"C$	c #4FA5B9",
"D$	c #4E95AB",
"E$	c #4D7993",
"F$	c #4D7E97",
"G$	c #4E99AE",
"H$	c #4AA3B7",
"I$	c #51A5B8",
"J$	c #97C3C7",
"K$	c #DBEDDD",
"L$	c #F4FEE8",
"      . + @ # $ % & * = - ; > , ' )   ! ~ { ] ^ / . ( _ : < [ < ",
"} } } | 1 2 3 4 5 6 7 8 9 0 0 a b c d e f g h i j k d l m n o p ",
"q q q q r s t u v w x y z A A B C D E F G H I J K L M N O P P Q ",
"p p p o R S T U V W X Y Z ` `  ...+.@.#.$.1 %.&.*.=.-.;.>.,.'.).",
"!.!.!.~.{.].^./.(._.:.<.[.` ` [.}.|.1.2.3.4.5.6.7.8.9.0.a.b.b.b.",
").).).c.d.e.f.g.h.Y Z ` ` ` i.j.j.k.l.m.n.o.p.q.r.s.t.u.v.w.x.y.",
"b.b.b.z.A.B.C.D.E.}.[.` ` F.G.H.H.I.J.K.L.M.N.O.P.Q.R.S.T.U.V.W.",
"X.Y.Y.Z.`. + +Y .+` i.i.i.++@+#+#+#+$+%+&+*+=+i.` ` ` s.t.-+;+& ",
">+,+'+)+!+~+~+}.[.F.G.{+{+]+^+#+#+/+(+_+:+<+[+G.F.` ` }+<.z |+1+",
"2+3+4+5+s.` ` ` i.++6+#+#+#+$+7+7+8+9+0+a+$+#+b+++i.i.i.i.Z c+d+",
"e+f+g+}.Q.` ` F.G.]+^+#+#+h+i+j+j+k+l+m+n+i+o+p+q+{+{+{+{+r+s+t+",
"u+v+w+x+` ` i.++b+#+#+#+y+8+z+A+A+A+A+A+A+0+B+y+#+#+#+#+#+C+D+E+",
"F+G+H+I+[.F.G.]+p+#+#+h+(+k+l+A+A+A+A+A+A+m+J+i+o+#+#+#+#+C+D+K+",
"L+M+N+O+P+Q+b+#+R+y+y+8+z+S+T+U+U+U+U+U+U+T+S+V+W+R+#+#+R+X+Y+Z+",
"!.`+ @.@+@@@#@o+i+_+_+k+l+$@%@&@&@&@&@&@&@%@*@m+J+i+o+=@-@;@>@,@",
").'.'@)@!@~@C+8+9+{@]@T+T+^@/@(@(@(@(@(@(@_@:@T+T+<@[@}@Y+|@1@2@",
"b.3@4@5@6@7@=@/+-@8@9@&@&@0@a@(@(@(@(@(@(@a@0@&@&@b@c@d@e@f@g@h@",
"i@j@k@~@C+#+#+#+#+l@m@n@(@(@(@(@(@(@* o@o@o@o@o@o@p@i@,.,.,.,.).",
"q@r@s@7@=@#+#+#+#+t@u@v@w@(@(@(@(@x@y@z@z@z@z@z@z@A@B@C@C@b.b.b.",
"D@E@F@G@G@G@G@G@G@G@G@H@I@(@(@(@(@J@K@,.,.,.,.,.,.,.,.'.'.L@M@K@",
"N@O@P@Q@Q@Q@Q@Q@Q@Q@Q@R@S@T@T@T@T@U@V@i@W@,.,.,.b.b.b.b.'.x.X@Y@",
"$ Z@`@,.,.,.,.,.,.,.,.,.,.,.,.,.,.K@ #.#+#@###$###%#&#*#=#-#;#% ",
">#,#'#)#!#~#{#]#^#/#(#_#:#<#[#T@T@}#|#1#.#2#2#3#Y@4#5#6#7#8#9#0#",
"a#b#c#d#e#f#m g#T d#e#h#i#j#k#l#m#% % n#$ o#p#q#a#b#r#t s#t#q#u#",
"v#w#x#y#z#N A#B#C#D#E#F#G#H#I#J#l#K#K#n#& L#M#N#O#w#P#Q#R#v#v#v#",
"S#T#U#V#W#X#Y#Z#`#W# $.$+$@$#$$$q#t#t#q#%$&$r#*$e#l =$-$;$e#>$e#",
"D#,$A#'$!.)$!$~${$]$^$B#.$/$t v#v#v#v#($v#_$:$<$D#[$}$|$1$D#<$D#",
"L+2$Y#,.,.).).).).,.3$4$5$6$7$e#>$e#e#>$e#l 8$9$W#0$a$b$c$W#W#W#",
"d$e$!$b.b.b.,.,.b.] b.f$4$g$.$<$<$D#D#<$D#h$i$d$'$e$!$j$e$k$'$k$",
"l$,.,.L@M@K@K@K@K@m$n$b.3$Z#`#o$o$L+L+9$L+0$Y#,.,.'.l$p$q$r$r$r$",
"b.'.s$x.t$u$Y@Y@u$T@v$'.'.~${$d$d$d$d$w$d$e$!$b.] x$l$y$z$A$B$A$",
",.C$,.D$E$(@(@(@o@F$G$,.,.,.3$3$3$3$3$3$3$l$,.,.,.H$I$J$K$    L$"};
