/* XPM */
static char * exit_xpm[] = {
"32 32 676 2",
"  	c #F5FFE8",
". 	c #F6FFE9",
"+ 	c #F4FEE7",
"@ 	c #D5E0D1",
"# 	c #8C9CA3",
"$ 	c #496684",
"% 	c #486584",
"& 	c #4C6784",
"* 	c #4C6985",
"= 	c #4D7D96",
"- 	c #4E99AE",
"; 	c #4AA3B8",
"> 	c #52A5B9",
", 	c #99C4C7",
"' 	c #DCEEDE",
") 	c #F7FFE9",
"! 	c #D6EADC",
"~ 	c #8FBFC5",
"{ 	c #48A2B7",
"] 	c #4DA3B8",
"^ 	c #98C3C7",
"/ 	c #DCEDDE",
"( 	c #F6FFE8",
"_ 	c #DFF9DE",
": 	c #B1EECB",
"< 	c #92E8C0",
"[ 	c #91E8C0",
"} 	c #E1FADF",
"| 	c #E2FBDF",
"1 	c #E1F9DE",
"2 	c #CEE4D0",
"3 	c #AABBB5",
"4 	c #94A2A7",
"5 	c #93A1A6",
"6 	c #83939D",
"7 	c #60778D",
"8 	c #467490",
"9 	c #498CA3",
"0 	c #65A3B4",
"a 	c #89B9C1",
"b 	c #B0D4CE",
"c 	c #D3EED9",
"d 	c #D0ECD8",
"e 	c #B1D4CE",
"f 	c #9EC6C9",
"g 	c #A0C7C9",
"h 	c #B6D7D0",
"i 	c #D5EFDA",
"j 	c #E3FAE0",
"k 	c #CDF1D6",
"l 	c #A2E2C7",
"m 	c #84D9BE",
"n 	c #83D9BE",
"o 	c #85D9BE",
"p 	c #B4EFCC",
"q 	c #B4EECC",
"r 	c #C0EBCE",
"s 	c #D0E6D1",
"t 	c #D9E4D4",
"u 	c #D7E2D3",
"v 	c #BCC9C0",
"w 	c #7F919C",
"x 	c #466A88",
"y 	c #4C7791",
"z 	c #8AA6AE",
"A 	c #C3D8CF",
"B 	c #CFECD8",
"C 	c #BEEED0",
"D 	c #B3EFCC",
"E 	c #C9F1D5",
"F 	c #E2F5E0",
"G 	c #EAF7E4",
"H 	c #EAF7E3",
"I 	c #E6F7E2",
"J 	c #E0F8DF",
"K 	c #D2F6D8",
"L 	c #BDF0CF",
"M 	c #A3E1C7",
"N 	c #7FC8BF",
"O 	c #66B9BA",
"P 	c #67BABA",
"Q 	c #86D9BE",
"R 	c #A7E4C8",
"S 	c #D1F3D8",
"T 	c #CEE5D0",
"U 	c #92A0A5",
"V 	c #B0C2BA",
"W 	c #D2E9D3",
"X 	c #CCF1D6",
"Y 	c #83D9BD",
"Z 	c #BEEAD1",
"` 	c #EBFCE3",
" .	c #F3FFE7",
"..	c #F2FEE6",
"+.	c #EFFCE5",
"@.	c #D7F3DB",
"#.	c #A9E3C9",
"$.	c #8BD2C1",
"%.	c #79BCBE",
"&.	c #65ACBB",
"*.	c #54A6B9",
"=.	c #4FA5B8",
"-.	c #64B9BA",
";.	c #62B8B9",
">.	c #65B9BA",
",.	c #83CBC0",
"'.	c #A7E5C8",
").	c #B5F0CD",
"!.	c #B6F0CD",
"~.	c #C0ECCF",
"{.	c #D1E6D2",
"].	c #D9E3D4",
"^.	c #D9E3D3",
"/.	c #D0E7D1",
"(.	c #BEECCE",
"_.	c #7DC8BE",
":.	c #63B9BA",
"<.	c #95D1C4",
"[.	c #C3EDD3",
"}.	c #C9EED5",
"|.	c #BAE0D0",
"1.	c #BADDD1",
"2.	c #C7E4D5",
"3.	c #CAE5D7",
"4.	c #C9E2D6",
"5.	c #ACCFCD",
"6.	c #6FAFBD",
"7.	c #4EA3B8",
"8.	c #4EA4B8",
"9.	c #50A5B8",
"0.	c #64B7BA",
"a.	c #7DD1BD",
"b.	c #85DABE",
"c.	c #86DABE",
"d.	c #A9E4C9",
"e.	c #D4F4D9",
"f.	c #E4FBE0",
"g.	c #E3FBE0",
"h.	c #ADE4CA",
"i.	c #8DD2C1",
"j.	c #7ABCBF",
"k.	c #69ADBC",
"l.	c #58A7B9",
"m.	c #7DD0BD",
"n.	c #87DCBE",
"o.	c #86DBBE",
"p.	c #7CCFBC",
"q.	c #9AC8C7",
"r.	c #D8EBDC",
"s.	c #CCE2D7",
"t.	c #8FB9BF",
"u.	c #67A1B2",
"v.	c #5FB3B9",
"w.	c #78CCBC",
"x.	c #7CD1BC",
"y.	c #6FC3BB",
"z.	c #98D3C5",
"A.	c #CEF1D7",
"B.	c #DAF4DC",
"C.	c #D1EBD9",
"D.	c #CCE5D7",
"E.	c #CAE2D7",
"F.	c #B4D3D0",
"G.	c #7BB4C0",
"H.	c #62B6B9",
"I.	c #7BCFBC",
"J.	c #83D7BE",
"K.	c #81D5BD",
"L.	c #7ED2BD",
"M.	c #8DD0C2",
"N.	c #A2CEC9",
"O.	c #AACECC",
"P.	c #B5D1CC",
"Q.	c #C5D7CD",
"R.	c #ACBFBC",
"S.	c #4A96AC",
"T.	c #4A95AC",
"U.	c #539DB1",
"V.	c #6AABBB",
"W.	c #7BBEC0",
"X.	c #8AD9C0",
"Y.	c #8DDFBF",
"Z.	c #7FC5BF",
"`.	c #A0CFC8",
" +	c #EBFBE4",
".+	c #EAF8E3",
"++	c #E9F6E3",
"@+	c #D2ECD9",
"#+	c #8EC4C3",
"$+	c #6CBFBB",
"%+	c #88DDBE",
"&+	c #97E9C2",
"*+	c #9FEAC4",
"=+	c #A2EBC5",
"-+	c #96DBC2",
";+	c #7FB9BA",
">+	c #6AA4B3",
",+	c #569AAE",
"'+	c #99B7BB",
")+	c #D9E5D5",
"!+	c #C5D1C6",
"~+	c #4C7B95",
"{+	c #4C7B94",
"]+	c #4C7C95",
"^+	c #719CAA",
"/+	c #B0CECB",
"(+	c #C2E3D3",
"_+	c #A6E6C8",
":+	c #A0E7C5",
"<+	c #BDE4D1",
"[+	c #CAE7D6",
"}+	c #C3EED2",
"|+	c #BAE9CF",
"1+	c #AFD7CD",
"2+	c #A8CCCC",
"3+	c #AED6CD",
"4+	c #B1E9CB",
"5+	c #91DAC2",
"6+	c #84D8BE",
"7+	c #8EE3BF",
"8+	c #A9ECC8",
"9+	c #CBF4D5",
"0+	c #D7F7DA",
"a+	c #D4F1D8",
"b+	c #CDE1D2",
"c+	c #B0C3BE",
"d+	c #7192A0",
"e+	c #75919F",
"f+	c #9DADAE",
"g+	c #90A0A4",
"h+	c #96A4A8",
"i+	c #9EACAD",
"j+	c #A9BEBC",
"k+	c #CEE1D5",
"l+	c #DBF3DD",
"m+	c #B2ECCB",
"n+	c #D6F6DA",
"o+	c #DBF7DC",
"p+	c #AEE9CA",
"q+	c #6BBEBB",
"r+	c #5BAFB9",
"s+	c #90E6C0",
"t+	c #8DE2BF",
"u+	c #8BE1BF",
"v+	c #ACE6C8",
"w+	c #D8EED8",
"x+	c #E9F5E0",
"y+	c #EAFAE2",
"z+	c #CFDFCF",
"A+	c #93A4A7",
"B+	c #687D90",
"C+	c #516B87",
"D+	c #D8E3D3",
"E+	c #DCE7D6",
"F+	c #E4EFDC",
"G+	c #DAE8D9",
"H+	c #B6D3CD",
"I+	c #A2D1C9",
"J+	c #98E0C4",
"K+	c #9CEAC3",
"L+	c #B2EECB",
"M+	c #B1E8CC",
"N+	c #8AD0C1",
"O+	c #72C5BB",
"P+	c #7ACEBD",
"Q+	c #7FD3BD",
"R+	c #8ADFBF",
"S+	c #77CBBC",
"T+	c #6DC0BB",
"U+	c #80BDB8",
"V+	c #9CB6B4",
"W+	c #ADC8BB",
"X+	c #B9E6CA",
"Y+	c #BEF1D0",
"Z+	c #C2E9CE",
"`+	c #CADDCC",
" @	c #AFBCB8",
".@	c #6E8293",
"+@	c #4B6785",
"@@	c #E6FCE1",
"#@	c #E8FBE2",
"$@	c #D9EFDC",
"%@	c #98C6C7",
"&@	c #60B3BA",
"*@	c #82D6BE",
"=@	c #87DBBD",
"-@	c #67B6B6",
";@	c #60AEB3",
">@	c #7ECDB7",
",@	c #8BDCBA",
"'@	c #8BDFBD",
")@	c #8BE0BF",
"!@	c #7FD1BC",
"~@	c #61B0B5",
"{@	c #4F9DB2",
"]@	c #4E93A9",
"^@	c #67A29F",
"/@	c #88D7B7",
"(@	c #DEF9DD",
"_@	c #D7E7D4",
":@	c #B3C1BB",
"<@	c #9FADAE",
"[@	c #D4F7D9",
"}@	c #DCF9DD",
"|@	c #CAF4D5",
"1@	c #B0E5CB",
"2@	c #80C1C0",
"3@	c #87D8B9",
"4@	c #67A7A6",
"5@	c #558A9A",
"6@	c #649C9C",
"7@	c #6CABA5",
"8@	c #6CB9B4",
"9@	c #66B2B3",
"0@	c #5693A2",
"a@	c #4D8199",
"b@	c #4D869E",
"c@	c #4E8FA5",
"d@	c #68B1B0",
"e@	c #88DABC",
"f@	c #A1EBC5",
"g@	c #B6EFCD",
"h@	c #CDF2D6",
"i@	c #E5F5DF",
"j@	c #E5F0DC",
"k@	c #E9FBE2",
"l@	c #BBF0CE",
"m@	c #68BBBA",
"n@	c #7FD2BD",
"o@	c #8ADEBE",
"p@	c #8ADCBA",
"q@	c #80C9AE",
"r@	c #619293",
"s@	c #4A6380",
"t@	c #4A738C",
"u@	c #4C8EA4",
"v@	c #4C9AAE",
"w@	c #4B7790",
"x@	c #4E93A8",
"y@	c #65B4B5",
"z@	c #81D4BC",
"A@	c #91E6C0",
"B@	c #EFFDE5",
"C@	c #D2EADA",
"D@	c #8FE5C0",
"E@	c #72C6BC",
"F@	c #6BBAB5",
"G@	c #6BACA6",
"H@	c #639694",
"I@	c #4F6F7D",
"J@	c #41506D",
"K@	c #415873",
"L@	c #426880",
"M@	c #426F85",
"N@	c #44617C",
"O@	c #4B7891",
"P@	c #5796A4",
"Q@	c #66B4B5",
"R@	c #79CDBC",
"S@	c #8CE1BF",
"T@	c #E2FADF",
"U@	c #D0E5D9",
"V@	c #71C5BB",
"W@	c #5BA8B2",
"X@	c #528A9D",
"Y@	c #4A6D88",
"Z@	c #425873",
"`@	c #3D4664",
" #	c #3B4260",
".#	c #3A3F5E",
"+#	c #486074",
"@#	c #577F89",
"##	c #5D979E",
"$#	c #5EABB2",
"%#	c #6EC1BB",
"&#	c #8CE2BF",
"*#	c #79CABA",
"=#	c #61AAB0",
"-#	c #4D8AA1",
";#	c #49708A",
">#	c #445774",
",#	c #3E4967",
"'#	c #5C888C",
")#	c #77B9A6",
"!#	c #80CDB4",
"~#	c #81D3BB",
"{#	c #7BCEBD",
"]#	c #6FC2BB",
"^#	c #C0D8D0",
"/#	c #DBF1DC",
"(#	c #BFEED0",
"_#	c #A6ECC7",
":#	c #9AE9C3",
"<#	c #88DBBD",
"[#	c #68B6B5",
"}#	c #4E94AA",
"|#	c #4D829A",
"1#	c #4A718A",
"2#	c #43647D",
"3#	c #446376",
"4#	c #4E7177",
"5#	c #537778",
"6#	c #51777F",
"7#	c #4E768B",
"8#	c #66A19F",
"9#	c #87D6B7",
"0#	c #76BFBD",
"a#	c #9EE2C5",
"b#	c #BFEED1",
"c#	c #C0DCD4",
"d#	c #89A4AB",
"e#	c #AAC6C1",
"f#	c #CAE8D5",
"g#	c #D2F5D8",
"h#	c #AEEDCA",
"i#	c #88D8B9",
"j#	c #68A7A5",
"k#	c #4D849C",
"l#	c #4D93A8",
"m#	c #4B90A5",
"n#	c #599EA4",
"o#	c #74BAA7",
"p#	c #7EC7A9",
"q#	c #74BBA9",
"r#	c #5CA1AA",
"s#	c #67B1B1",
"t#	c #87DABC",
"u#	c #91C4C5",
"v#	c #CCECD7",
"w#	c #CAE9D6",
"x#	c #AACFCC",
"y#	c #89BBC3",
"z#	c #4C6986",
"A#	c #7694A1",
"B#	c #C0D5CC",
"C#	c #D9EFDB",
"D#	c #ABEDC8",
"E#	c #A4DFC1",
"F#	c #91B5AC",
"G#	c #7E9DA5",
"H#	c #6CACB2",
"I#	c #60B4BA",
"J#	c #90E5C0",
"K#	c #88DDBF",
"L#	c #7CC6BE",
"M#	c #9FE2C5",
"N#	c #99DDC4",
"O#	c #73C0BC",
"P#	c #99CAC7",
"Q#	c #D1E8D9",
"R#	c #C0DAD3",
"S#	c #78ADB9",
"T#	c #4E98AD",
"U#	c #5F7A90",
"V#	c #87A0A8",
"W#	c #A8C4C1",
"X#	c #CBE9D5",
"Y#	c #DDF8DD",
"Z#	c #DBF4DA",
"`#	c #C6DDCD",
" $	c #9FD9C3",
".$	c #8EE4BF",
"+$	c #89DEBF",
"@$	c #75C8BC",
"#$	c #69BCBA",
"$$	c #71C4BB",
"%$	c #CEF2D7",
"&$	c #C7EFD4",
"*$	c #8BD1C1",
"=$	c #97C8C6",
"-$	c #88B5BC",
";$	c #6091A4",
">$	c #4D7C95",
",$	c #758997",
"'$	c #8C9CA2",
")$	c #8F9FA5",
"!$	c #A3B8B8",
"~$	c #D0E3D6",
"{$	c #E9F8E2",
"]$	c #E5FBE1",
"^$	c #AFEDCA",
"/$	c #8CDFBE",
"($	c #91DEBE",
"_$	c #A4E8C5",
":$	c #A4E2C8",
"<$	c #92C9C5",
"[$	c #88BBC3",
"}$	c #93CAC5",
"|$	c #A5E3C8",
"1$	c #BDEDCF",
"2$	c #D6EFDA",
"3$	c #DFEEDD",
"4$	c #DFEFDE",
"5$	c #CDEED6",
"6$	c #A6EAC7",
"7$	c #8DDAC0",
"8$	c #6DB1B5",
"9$	c #498AA2",
"0$	c #47738F",
"a$	c #B6C3BC",
"b$	c #D2DDCF",
"c$	c #D0DBCD",
"d$	c #DAE6D7",
"e$	c #DEEEDD",
"f$	c #D4F1DA",
"g$	c #BFF1D0",
"h$	c #AFEECA",
"i$	c #9DEAC4",
"j$	c #9AE5C2",
"k$	c #89C6B5",
"l$	c #8FBBB1",
"m$	c #C7E5CF",
"n$	c #DCF5DD",
"o$	c #D8EDDC",
"p$	c #D6E9DB",
"q$	c #D8EEDC",
"r$	c #CEE7D2",
"s$	c #AAC2BD",
"t$	c #97AEB2",
"u$	c #99B0B2",
"v$	c #A9D1C1",
"w$	c #A1E7C5",
"x$	c #A2E2C4",
"y$	c #85B0AF",
"z$	c #4A7590",
"A$	c #476A87",
"B$	c #4A6684",
"C$	c #CDD8CB",
"D$	c #E2EEDB",
"E$	c #E2F2DC",
"F$	c #E7FCE2",
"G$	c #E6FBE1",
"H$	c #A1E8C6",
"I$	c #97E7C2",
"J$	c #A2EAC6",
"K$	c #A8ECC7",
"L$	c #ADE7C7",
"M$	c #A4C4B7",
"N$	c #9FADAD",
"O$	c #C8D4C8",
"P$	c #DEE9D7",
"Q$	c #C6D2C7",
"R$	c #8F9EA4",
"S$	c #92A1A6",
"T$	c #A8CBBB",
"U$	c #ADE8C7",
"V$	c #B2E7C8",
"W$	c #A7C3B7",
"X$	c #909FA5",
"Y$	c #919FA5",
"Z$	c #DDE8D6",
"`$	c #DDEFD9",
" %	c #E0F8DD",
".%	c #D8F3DB",
"+%	c #A6DCC9",
"@%	c #87D4C0",
"#%	c #A2E6C7",
"$%	c #AEEEC9",
"%%	c #B9ECCC",
"&%	c #CCE4CF",
"*%	c #C1CCC3",
"=%	c #A1AFAF",
"-%	c #95A5A8",
";%	c #95A4A7",
">%	c #96A5A8",
",%	c #A5B2B1",
"'%	c #C5D0C5",
")%	c #D8E2D2",
"!%	c #D8E2D3",
"~%	c #CAE6D0",
"{%	c #B7EBCB",
"]%	c #B9EBCB",
"^%	c #D7E2D2",
"/%	c #E1F9DF",
"(%	c #D2F3D8",
"_%	c #D2F2D8",
":%	c #E2F7DF",
"<%	c #D6F0DB",
"[%	c #B0D5CE",
"}%	c #96CAC6",
"|%	c #A2DBC8",
"1%	c #A7E3C9",
"2%	c #B9EACF",
"3%	c #D4F3D9",
"4%	c #CFE4D0",
"5%	c #A9BAB5",
"6%	c #909EA4",
"7%	c #91A0A5",
"8%	c #ADBFB8",
"9%	c #D2E8D3",
"0%	c #A3E3C7",
"a%	c #A6E4C8",
"b%	c #D0F2D7",
"c%	c #E3FADF",
"d%	c #B7F0CD",
"e%	c #A9E3CA",
"f%	c #9DD3C6",
"g%	c #9DCFC8",
"h%	c #A9D2CB",
"i%	c #C7E1D6",
"j%	c #D9ECDD",
"k%	c #DAEEDD",
"l%	c #DAEFDD",
"m%	c #DBEFDD",
"n%	c #CEEBD8",
"o%	c #BCEBD0",
"p%	c #C1ECCF",
"q%	c #D7E1D2",
"r%	c #CFE6D1",
"s%	c #BFEDCF",
"t%	c #B8F1CE",
"u%	c #A5E2C8",
"v%	c #80C9BF",
"w%	c #82CBBF",
"x%	c #A7E4C9",
"y%	c #79CCBD",
"z%	c #4FA4B8",
"A%	c #7AB5C0",
"B%	c #BEDAD3",
"C%	c #CAE5D6",
"D%	c #A1DBC7",
"E%	c #A8E4C9",
"F%	c #A3E2C7",
"G%	c #87DBBE",
"H%	c #7ACDBD",
"I%	c #61B4BA",
"J%	c #62B5BA",
"K%	c #7ACEBC",
"L%	c #65BABA",
"M%	c #5FB4B9",
"N%	c #54A9B8",
"O%	c #5FA9BB",
"P%	c #83B8C2",
"Q%	c #93C1C6",
"R%	c #92C0C6",
"S%	c #89BEC3",
"T%	c #74BCBD",
"U%	c #84CCC0",
"V%	c #A9E5C9",
"W%	c #7FC9BF",
"X%	c #64BABA",
"Y%	c #54AAB8",
"Z%	c #64BAB9",
"`%	c #50A4B8",
" &	c #4FA1B5",
".&	c #4E9BB0",
"+&	c #4E9CB1",
"@&	c #4FA1B6",
"#&	c #63B6BA",
"$&	c #7CCFBD",
"%&	c #87DABE",
"&&	c #67ACBC",
"*&	c #85BAC2",
"=&	c #91C0C5",
"-&	c #4FA3B8",
";&	c #4E9AAF",
">&	c #4D879E",
",&	c #4E8AA1",
"'&	c #4F9CB1",
")&	c #55AAB8",
"!&	c #60B5B9",
"~&	c #65BBBA",
"{&	c #4AA2B7",
"]&	c #C0DBD4",
"^&	c #D6E9DC",
"/&	c #D7EADC",
"(&	c #4FA5B9",
"_&	c #4E95AB",
":&	c #4D7993",
"<&	c #4C6885",
"[&	c #4D7E97",
"}&	c #4AA3B7",
"|&	c #51A5B8",
"1&	c #97C3C7",
"2&	c #DBEDDD",
"3&	c #F4FEE8",
"      . + @ # $ % & * = - ; > , ' )   ! ~ { ] ^ / . ( _ : < [ < ",
"} } } | 1 2 3 4 5 6 7 8 9 0 a b c | } d e f g h i j } k l m n o ",
"p p p p q r s t u v w x y z A B C D p E F G H I J K L M N O O P ",
"o o o n Q R S | 1 T 3 U 4 V W X l Y o Z `  . ...+.@.#.$.%.&.*.=.",
"-.-.-.;.>.,.'.).!.~.{.].^./.(.M _.;.:.<.[.K K }.|.1.2.3.4.5.6.7.",
"=.=.=.8.9.0.a.b.c.d.e.f.g.S h.i.j.k.l.0.m.n.o.p.P q.r.G G s.t.u.",
"7.7.7.7.7.v.w.x.y.z.A._ _ B.C.D.E.F.G.H.I.J.J.K.L.M.N.O.O.P.Q.R.",
"S.T.S.U.V.W.X.Y.Z.`.@. +.+++++.+ +@+#+$+%+&+*+=+=+-+;+>+,+'+)+!+",
"~+{+]+^+/+(+_+:+<+[+}+|+1+2+2+3+|+4+5+6+7+8+9+0+0+a+b+c+d+e+f+g+",
"5 h+i+j+k+l+m+8+n+o+p+J.q+r+r+$+n.s+t+u+u+v+w+x+y+` ` z+A+B+C+% ",
"D+E+F+G+H+I+J+K+L+M+N+O+P+Q+Q+6+7+R+S+T+T+U+V+W+X+Y+Y+Z+`+ @.@+@",
"j @@#@$@%@&@*@< < =@-@;@>@,@'@)@)@!@~@{@{@]@= ^@/@< < p (@_@:@<@",
"[@}@|@1@2@&@*@< < 3@4@5@6@7@8@T+T+9@0@a@a@b@c@d@e@< < f@g@h@i@j@",
"@.k@l@)@O+m@n@o@p@q@r@s@s@t@u@v@v@u@t@s@s@w@x@y@z@t+A@< < l@k@B@",
"C@k@l@D@o.m.E@F@G@H@I@J@J@K@L@M@M@L@K@J@J@N@O@P@Q@R@S@< < l@k@T@",
"U@k@l@< < R+V@W@X@Y@Z@`@ #.#.#.#.#.#.# #`@+#@###$#%#J.&#A@l@k@@.",
"U@k@l@< < D@o.*#=#-#;#>#,#.#.#.#.#.#.#,#>#'#)#!#~#{#]#R@S@l@k@C@",
"^#/#(#_#:#< < <#[#}#|#1#2#3#4#5#5#5#5#6#7#8#9#< < *@&@0#a#b#/#c#",
"d#e#f#g#h#< < i#j#k#c@l#m#n#o#p#p#p#p#q#r#s#t#< < *@&@u#v#w#x#y#",
"z#A#B#C#C D#D#E#F#G#H#I#I#]#n.J#)@K#K#Q+q+L#M#D#D#N#O#P#Q#R#S#T#",
"& U#V#W#X#Y#Y#Z#_@`# $*@*@o..$+$@$#$#$$$a.M %$Y#Y#&$N#*$=$-$;$>$",
",$'$)$!$~${$k@]$]$0+^$A@/$($_$:$<$[$[$}$|$1$2$3$4$5$6$7$8$9$0$% ",
"a$b$c$d$e$f$g$g@g@h$i$j$k$l$m$n$o$p$p$q$n$r$s$t$u$v$w$x$y$z$A$B$",
"C$D$E$F$G$h@H$I$J$K$K$L$M$N$O$P$P$P$P$P$P$Q$i+R$S$T$U$V$W$X$R$Y$",
"Z$`$ %G$G$.%+%@%#%$%$%%%&%*%=%-%;%>%>%;%>%,%'%)%!%~%{%]%T ^%^%^%",
"/%(%_%:%:%<%[%}%|%1%d.2%3%4%5%6%R$X$X$R$7%8%9%j T@k 0%a%b%T@c%T@",
"d%e%f%g%g%h%i%j%k%l%m%n%o%p%s ^%^%^%^%q%^%r%s%t%d%u%v%w%x%d%t%d%",
"c.y%&@z%z%A%B%/ / / / C%D%E%(%T@c%T@T@c%T@k F%G%b.H%I%J%K%b.b.b.",
"L%M%N%7.7.O%P%Q%R%R%R%S%T%U%V%t%t%d%d%t%d%|$W%L%X%M%N%Y%M%Z%X%Z%",
"`%z%z% &.&T#T#T#T#+&@&7.9.#&$&%&%&c.c.G%c.H%&@z%z%8.`%&&*&=&=&=&",
"7.8.-&;&>&= >$>$= ,&'&8.8.)&!&L%L%L%L%~&L%M%N%7.] {&`%[$]&^&/&^&",
"z%(&z%_&:&<&<&<&z#[&- z%z%z%9.9.9.9.9.9.9.`%z%z%z%}&|&1&2&    3&"};
