/* XPM */
static char * heroine_xpm[] = {
"32 32 747 2",
"  	c #F5FFE8",
". 	c #F6FFE9",
"+ 	c #F4FEE7",
"@ 	c #D5E0D1",
"# 	c #8C9CA3",
"$ 	c #496684",
"% 	c #486584",
"& 	c #4C6784",
"* 	c #4C6985",
"= 	c #4D7D96",
"- 	c #4E99AE",
"; 	c #4AA3B8",
"> 	c #52A5B9",
", 	c #99C4C7",
"' 	c #DCEEDE",
") 	c #F7FFE9",
"! 	c #D6EADC",
"~ 	c #8FBFC5",
"{ 	c #48A2B7",
"] 	c #4DA3B8",
"^ 	c #98C3C7",
"/ 	c #DCEDDE",
"( 	c #F6FFE8",
"_ 	c #DFF9DE",
": 	c #B1EECB",
"< 	c #92E8C0",
"[ 	c #91E8C0",
"} 	c #E1FADF",
"| 	c #E2FBDF",
"1 	c #E1F9DE",
"2 	c #CEE4D0",
"3 	c #AABBB5",
"4 	c #94A2A7",
"5 	c #93A1A6",
"6 	c #83939D",
"7 	c #60778D",
"8 	c #467490",
"9 	c #498CA3",
"0 	c #5E342C",
"a 	c #5F342C",
"b 	c #5D342C",
"c 	c #ABD1CC",
"d 	c #93C0C6",
"e 	c #95C1C6",
"f 	c #AFD3CE",
"g 	c #D2EED9",
"h 	c #E2FADF",
"i 	c #CDF1D6",
"j 	c #A2E2C7",
"k 	c #84D9BE",
"l 	c #83D9BE",
"m 	c #85D9BE",
"n 	c #B4EFCC",
"o 	c #B4EECC",
"p 	c #C0EBCE",
"q 	c #D0E6D1",
"r 	c #D9E4D4",
"s 	c #D7E2D3",
"t 	c #BCC9C0",
"u 	c #7F919C",
"v 	c #466A88",
"w 	c #99512D",
"x 	c #AD5D2E",
"y 	c #B15F2E",
"z 	c #B05F2E",
"A 	c #B15E2E",
"B 	c #A85A2E",
"C 	c #894A2D",
"D 	c #D9EBDD",
"E 	c #D8EBDC",
"F 	c #CFECD8",
"G 	c #BEEED0",
"H 	c #B5EFCC",
"I 	c #A3E1C7",
"J 	c #7FC8BF",
"K 	c #66B9BA",
"L 	c #67BABA",
"M 	c #86D9BE",
"N 	c #A7E4C8",
"O 	c #D1F3D8",
"P 	c #CEE5D0",
"Q 	c #8A5237",
"R 	c #C36B34",
"S 	c #E57B32",
"T 	c #ED7F31",
"U 	c #EC7F31",
"V 	c #DC7631",
"W 	c #AE5D2F",
"X 	c #76402C",
"Y 	c #A2E2C6",
"Z 	c #85DABE",
"` 	c #79CCBC",
" .	c #60B3B9",
"..	c #4FA4B8",
"+.	c #4EA4B8",
"@.	c #4FA5B8",
"#.	c #64B9BA",
"$.	c #62B8B9",
"%.	c #65B9BA",
"&.	c #83CBC0",
"*.	c #A7E5C8",
"=.	c #B5F0CD",
"-.	c #B6F0CD",
";.	c #C0ECCF",
">.	c #9B6A4A",
",.	c #BF7B4E",
"'.	c #E28344",
").	c #FA8836",
"!.	c #FF8932",
"~.	c #F38232",
"{.	c #D57230",
"].	c #B3602F",
"^.	c #8B4B2D",
"/.	c #A3E2C7",
"(.	c #7EC8BE",
"_.	c #63B8B9",
":.	c #5EB3B9",
"<.	c #54A9B8",
"[.	c #4EA3B8",
"}.	c #50A5B8",
"|.	c #63B6BA",
"1.	c #7BCFBD",
"2.	c #86DABE",
"3.	c #674639",
"4.	c #AE7751",
"5.	c #DD925C",
"6.	c #F39453",
"7.	c #FD9042",
"8.	c #FF8E3D",
"9.	c #FB8A3B",
"0.	c #ED8136",
"a.	c #CF6F31",
"b.	c #944F2D",
"c.	c #48292B",
"d.	c #4FA5B9",
"e.	c #4FA1B5",
"f.	c #4E9BB0",
"g.	c #4E97AD",
"h.	c #55AAB8",
"i.	c #5FB4B9",
"j.	c #65BABA",
"k.	c #513733",
"l.	c #8F6246",
"m.	c #C38254",
"n.	c #E79358",
"o.	c #FB9B57",
"p.	c #FF9D57",
"q.	c #F69451",
"r.	c #DB7E41",
"s.	c #B26131",
"t.	c #78402B",
"u.	c #392129",
"v.	c #4E9AAF",
"w.	c #4D879E",
"x.	c #4D7B95",
"y.	c #4A96AC",
"z.	c #4A95AC",
"A.	c #4B9AB0",
"B.	c #4EA1B6",
"C.	c #604137",
"D.	c #6A4638",
"E.	c #7A4D39",
"F.	c #9C6342",
"G.	c #CC8555",
"H.	c #EB9C62",
"I.	c #F2A165",
"J.	c #F2A065",
"K.	c #E2945D",
"L.	c #BA7447",
"M.	c #8D5134",
"N.	c #734534",
"O.	c #664337",
"P.	c #4E98AD",
"Q.	c #4E8CA3",
"R.	c #4D7690",
"S.	c #4C6885",
"T.	c #4C7B95",
"U.	c #4C7B94",
"V.	c #4C7C95",
"W.	c #4D89A0",
"X.	c #4E9CB1",
"Y.	c #9E6B4B",
"Z.	c #B77950",
"`.	c #BC7244",
" +	c #BB6B3A",
".+	c #BC7447",
"++	c #BC7F54",
"@+	c #BC8157",
"#+	c #BC8057",
"$+	c #BC7C50",
"%+	c #BB6F40",
"&+	c #BC6C3C",
"*+	c #BC774A",
"=+	c #B17750",
"-+	c #8C5F45",
";+	c #4D7C95",
">+	c #4D7B94",
",+	c #4C6D89",
"'+	c #92A1A6",
")+	c #829EA8",
"!+	c #6198AB",
"~+	c #4996AC",
"{+	c #6A483A",
"]+	c #B77C54",
"^+	c #E79A62",
"/+	c #F39858",
"(+	c #E78644",
"_+	c #C4703B",
":+	c #9A5B3A",
"<+	c #8B553A",
"[+	c #8C563A",
"}+	c #8C553A",
"|+	c #A7623A",
"1+	c #D4783D",
"2+	c #EE8E4B",
"3+	c #F29C5E",
"4+	c #DA945F",
"5+	c #493231",
"6+	c #4B6785",
"7+	c #496584",
"8+	c #D8E3D3",
"9+	c #D7E2D2",
"0+	c #BCCBC3",
"a+	c #7F9BA5",
"b+	c #4A7A94",
"c+	c #497B94",
"d+	c #6A493A",
"e+	c #BD8056",
"f+	c #F3A469",
"g+	c #FFA967",
"h+	c #F99B58",
"i+	c #E18445",
"j+	c #C76D33",
"k+	c #BF652D",
"l+	c #C0662E",
"m+	c #BF652E",
"n+	c #CF743A",
"o+	c #EC8D4D",
"p+	c #FDA15E",
"q+	c #FFAA6A",
"r+	c #E59B64",
"s+	c #9E6C4B",
"t+	c #4B6684",
"u+	c #4B6784",
"v+	c #A9BAB5",
"w+	c #92A0A5",
"x+	c #45162D",
"y+	c #75453B",
"z+	c #B67853",
"A+	c #E39A65",
"B+	c #F0A268",
"C+	c #ED9B60",
"D+	c #E88C4D",
"E+	c #E37D37",
"F+	c #E1772E",
"G+	c #E1782E",
"H+	c #E1782F",
"I+	c #E17830",
"J+	c #E4823F",
"K+	c #EA9256",
"L+	c #EE9F64",
"M+	c #EFA268",
"N+	c #D79160",
"O+	c #9C6549",
"P+	c #5E3134",
"Q+	c #476583",
"R+	c #647A8E",
"S+	c #85959E",
"T+	c #C1ECCF",
"U+	c #D1E6D1",
"V+	c #461D2E",
"W+	c #6D2135",
"X+	c #89393D",
"Y+	c #A15D48",
"Z+	c #B17651",
"`+	c #B67C54",
" @	c #B6784F",
".@	c #B66F42",
"+@	c #B76533",
"@@	c #B8612D",
"#@	c #B7612C",
"$@	c #B8622E",
"%@	c #B76838",
"&@	c #B67348",
"*@	c #B67A52",
"=@	c #B57B53",
"-@	c #AC6F4E",
";@	c #985044",
">@	c #802E3A",
",@	c #602032",
"'@	c #8798A0",
")@	c #C2CDC4",
"!@	c #87DABE",
"~@	c #A8E4C9",
"{@	c #491F2F",
"]@	c #772537",
"^@	c #8E2C3D",
"/@	c #89363D",
"(@	c #7D463F",
"_@	c #815849",
":@	c #875E4E",
"<@	c #805043",
"[@	c #7A4339",
"}@	c #825042",
"|@	c #8B5D4C",
"1@	c #8D604E",
"2@	c #885949",
"3@	c #7E483D",
"4@	c #7B453B",
"5@	c #845849",
"6@	c #865E4E",
"7@	c #7D5145",
"8@	c #7F3F3D",
"9@	c #8D333E",
"0@	c #8A2A3C",
"a@	c #672334",
"b@	c #371E2D",
"c@	c #D2E8D3",
"d@	c #63B9B9",
"e@	c #84CCC0",
"f@	c #A8E5C9",
"g@	c #682334",
"h@	c #782337",
"i@	c #7F2038",
"j@	c #8E4248",
"k@	c #AB7366",
"l@	c #B98572",
"m@	c #A76C61",
"n@	c #985352",
"o@	c #AC7467",
"p@	c #C1917B",
"q@	c #C79880",
"r@	c #BB8976",
"s@	c #A1645C",
"t@	c #995653",
"u@	c #B17B6C",
"v@	c #B88472",
"w@	c #A0625A",
"x@	c #87313F",
"y@	c #7D2138",
"z@	c #742436",
"A@	c #5D2232",
"B@	c #CFE6D1",
"C@	c #BFEDCE",
"D@	c #7CCFBD",
"E@	c #84DABE",
"F@	c #582131",
"G@	c #6C2134",
"H@	c #88233A",
"I@	c #AB4D51",
"J@	c #CD8374",
"K@	c #DD9A84",
"L@	c #D18978",
"M@	c #C97C6F",
"N@	c #DD9B84",
"O@	c #F1B698",
"P@	c #F6BD9D",
"Q@	c #ECAF93",
"R@	c #D38C7A",
"S@	c #D89480",
"T@	c #DB9782",
"U@	c #C27067",
"V@	c #9E3946",
"W@	c #7D2237",
"X@	c #642233",
"Y@	c #60B5B9",
"Z@	c #471F2E",
"`@	c #6F2436",
" #	c #8A273B",
".#	c #9D2A40",
"+#	c #B0424D",
"@#	c #C46863",
"##	c #D38476",
"$#	c #DD9380",
"%#	c #E7A189",
"&#	c #F4B497",
"*#	c #FEC1A1",
"=#	c #FFC4A3",
"-#	c #FBBD9D",
";#	c #EFAD91",
">#	c #E39B85",
",#	c #DA8F7D",
"'#	c #CF7C70",
")#	c #BC5A5A",
"!#	c #A83647",
"~#	c #96293E",
"{#	c #812739",
"]#	c #612233",
"^#	c #A5E2C8",
"/#	c #7FC9BF",
"(#	c #63B9BA",
"_#	c #64BABA",
":#	c #4FA2B6",
"<#	c #762537",
"[#	c #94293F",
"}#	c #A32B42",
"|#	c #AE3344",
"1#	c #BA4849",
"2#	c #CA685B",
"3#	c #DD8E78",
"4#	c #EBA78D",
"5#	c #F1B094",
"6#	c #F2B295",
"7#	c #F3B295",
"8#	c #F2B195",
"9#	c #EFAE92",
"0#	c #E7A087",
"a#	c #D6806D",
"b#	c #C45B52",
"c#	c #B64047",
"d#	c #A92F44",
"e#	c #9F2B41",
"f#	c #8C283C",
"g#	c #652334",
"h#	c #361E2D",
"i#	c #60B3BA",
"j#	c #4E8AA1",
"k#	c #4F9CB1",
"l#	c #642333",
"m#	c #7B2539",
"n#	c #93283E",
"o#	c #B03A41",
"p#	c #CC573E",
"q#	c #DC6E46",
"r#	c #DB7C5F",
"s#	c #D48371",
"t#	c #D28475",
"u#	c #D28374",
"v#	c #D28375",
"w#	c #D6816C",
"x#	c #DD7855",
"y#	c #D86740",
"z#	c #C24C40",
"A#	c #A53141",
"B#	c #8A273C",
"C#	c #732536",
"D#	c #5A2232",
"E#	c #4C6986",
"F#	c #4B7892",
"G#	c #4B8EA4",
"H#	c #499AB0",
"I#	c #4CA1B5",
"J#	c #68ADBC",
"K#	c #361C2C",
"L#	c #5C2B33",
"M#	c #914441",
"N#	c #C15E49",
"O#	c #E37443",
"P#	c #EF7D3B",
"Q#	c #E17142",
"R#	c #CD6450",
"S#	c #C7675D",
"T#	c #C76F66",
"U#	c #C77169",
"V#	c #C76D64",
"W#	c #C76459",
"X#	c #D3674A",
"Y#	c #E9773D",
"Z#	c #EE7C3C",
"`#	c #D86C47",
" $	c #B15548",
".$	c #7C3A3B",
"+$	c #4A242F",
"@$	c #4CA4B8",
"#$	c #4C7892",
"$$	c #4888A0",
"%$	c #509DB1",
"&$	c #8CBDC4",
"*$	c #C2DDD5",
"=$	c #603D36",
"-$	c #A8694D",
";$	c #DD875A",
">$	c #F58E4F",
",$	c #FA873A",
"'$	c #F27D33",
")$	c #E77C4B",
"!$	c #E48D6E",
"~$	c #E59C84",
"{$	c #E5A089",
"]$	c #E4987E",
"^$	c #E48561",
"/$	c #EA793F",
"($	c #F68133",
"_$	c #FA8A41",
":$	c #EF8E56",
"<$	c #CD8058",
"[$	c #8D5944",
"}$	c #422C2F",
"|$	c #4D889F",
"1$	c #657A8E",
"2$	c #84959F",
"3$	c #90A9AF",
"4$	c #93BABF",
"5$	c #B0D4CE",
"6$	c #D3EEDA",
"7$	c #674539",
"8$	c #B87C54",
"9$	c #EE9E65",
"0$	c #FE9F5D",
"a$	c #FE9348",
"b$	c #FD8B3A",
"c$	c #FA8D4C",
"d$	c #F39B73",
"e$	c #EEA78B",
"f$	c #EDAA91",
"g$	c #F0A485",
"h$	c #F69564",
"i$	c #FB8B41",
"j$	c #FE8D3E",
"k$	c #FE9850",
"l$	c #FDA263",
"m$	c #E09662",
"n$	c #9A6849",
"o$	c #452E30",
"p$	c #85B7C0",
"q$	c #83B6BF",
"r$	c #63A2B3",
"s$	c #498AA2",
"t$	c #47738F",
"u$	c #4E6A86",
"v$	c #8999A1",
"w$	c #C2CEC4",
"x$	c #D8E5D6",
"y$	c #D8E9DA",
"z$	c #CEECD8",
"A$	c #BFEFD1",
"B$	c #6C4A3A",
"C$	c #BC8056",
"D$	c #F2A469",
"E$	c #FFAA69",
"F$	c #FFA15D",
"G$	c #FF964B",
"H$	c #F98A46",
"I$	c #E6835C",
"J$	c #D37F6E",
"K$	c #CE7E72",
"L$	c #D98069",
"M$	c #EE8652",
"N$	c #FC8E44",
"O$	c #FF9A52",
"P$	c #FFA562",
"Q$	c #FFAA6B",
"R$	c #E39B64",
"S$	c #4C3331",
"T$	c #C1D6CE",
"U$	c #BED3CC",
"V$	c #82A1AB",
"W$	c #4A7590",
"X$	c #476A87",
"Y$	c #4A6684",
"Z$	c #AEC0B9",
"`$	c #D3E9D3",
" %	c #E3FBE0",
".%	c #CBF1D6",
"+%	c #78503E",
"@%	c #9C6A4A",
"#%	c #CE8C5D",
"$%	c #F5A76C",
"%%	c #FFAE70",
"&%	c #FFA969",
"*%	c #FF9B54",
"=%	c #F68540",
"-%	c #D86742",
";%	c #B9494A",
">%	c #B03E4D",
",%	c #C35348",
"'%	c #E5743E",
")%	c #FB8E45",
"!%	c #FFA15E",
"~%	c #FFAC6D",
"{%	c #EA9F67",
"]%	c #BA7E55",
"^%	c #8C5F44",
"/%	c #AABCB6",
"(%	c #909FA5",
"_%	c #8F9EA4",
":%	c #919FA5",
"<%	c #CEE6D1",
"[%	c #B8F1CD",
"}%	c #644338",
"|%	c #A8724E",
"1%	c #D4905F",
"2%	c #ECA169",
"3%	c #FBAC6F",
"4%	c #FFAF71",
"5%	c #FF9C56",
"6%	c #F5843E",
"7%	c #D6613C",
"8%	c #B43842",
"9%	c #AA2744",
"0%	c #BE4740",
"a%	c #E4703A",
"b%	c #FB8E46",
"c%	c #FFA360",
"d%	c #FFAD6F",
"e%	c #F7A86D",
"f%	c #E59C65",
"g%	c #C7875A",
"h%	c #906246",
"i%	c #D0E5D1",
"j%	c #E1F9DF",
"k%	c #CCF1D6",
"l%	c #86DBBE",
"m%	c #EDA269",
"n%	c #FDAE70",
"o%	c #F5853F",
"p%	c #D6623C",
"q%	c #B43B43",
"r%	c #AB2B45",
"s%	c #BF4942",
"t%	c #FFA35F",
"u%	c #FFAD6E",
"v%	c #FEAE70",
"w%	c #FCAC6F",
"x%	c #DF9863",
"y%	c #462F30",
"z%	c #D0F2D7",
"A%	c #E3FADF",
"B%	c #B7F0CD",
"C%	c #A4E2C8",
"D%	c #674538",
"E%	c #EFA36A",
"F%	c #FFAF70",
"G%	c #FF9C55",
"H%	c #B53B43",
"I%	c #AB2C45",
"J%	c #C04942",
"K%	c #FFAC6E",
"L%	c #E19964",
"M%	c #452F30",
"N%	c #A7E4C9",
"O%	c #B8F1CE",
"P%	c #79CCBD",
"Q%	c #5A3D35",
"R%	c #A16C4B",
"S%	c #D79260",
"T%	c #F2A56B",
"U%	c #FCAD70",
"V%	c #FFAB6A",
"W%	c #FF9D56",
"X%	c #F5853E",
"Y%	c #D7623D",
"Z%	c #B53B44",
"`%	c #AC2C45",
" &	c #C04A42",
".&	c #E5713B",
"+&	c #FB8F46",
"@&	c #FAAA6E",
"#&	c #EAA068",
"$&	c #C6875A",
"%&	c #875B42",
"&&	c #3F2B2E",
"*&	c #7ACEBC",
"=&	c #402C2F",
"-&	c #6B4839",
";&	c #9E6B4A",
">&	c #D18F5E",
",&	c #F4A76C",
"'&	c #FEA969",
")&	c #FD9A55",
"!&	c #F3833E",
"~&	c #D4623C",
"{&	c #B33B43",
"]&	c #AA2B45",
"^&	c #BE4941",
"/&	c #E2703A",
"(&	c #F98D45",
"_&	c #FEA15E",
":&	c #FDAB6D",
"<&	c #FDAD70",
"[&	c #EBA068",
"}&	c #BF8157",
"|&	c #8A5D44",
"1&	c #32232C",
"2&	c #64BAB9",
"3&	c #50A4B8",
"4&	c #271C2B",
"5&	c #2D1F2B",
"6&	c #614137",
"7&	c #A5704D",
"8&	c #DD9763",
"9&	c #DD935D",
"0&	c #DD864C",
"a&	c #D4723A",
"b&	c #B95538",
"c&	c #9D343E",
"d&	c #94283F",
"e&	c #A5403C",
"f&	c #C56136",
"g&	c #D97B3F",
"h&	c #DD8C54",
"i&	c #DD9560",
"j&	c #DC9662",
"k&	c #C58659",
"l&	c #483131",
"m&	c #2A1E2B",
"n&	c #281D2B",
"o&	c #85BAC2",
"p&	c #91C0C5",
"q&	c #4FA3B8",
"r&	c #1C1629",
"s&	c #3E2B2E",
"t&	c #6C493A",
"u&	c #8B5E44",
"v&	c #936347",
"w&	c #936143",
"x&	c #92593A",
"y&	c #8D4C31",
"z&	c #7B3A31",
"A&	c #692833",
"B&	c #642234",
"C&	c #6F2E33",
"D&	c #834130",
"E&	c #905134",
"F&	c #935C3E",
"G&	c #936246",
"H&	c #926346",
"I&	c #825841",
"J&	c #5B3D35",
"K&	c #2E202C",
"L&	c #88BBC3",
"M&	c #C0DBD4",
"N&	c #D6E9DC",
"O&	c #D7EADC",
"P&	c #4E95AB",
"Q&	c #4D7993",
"R&	c #2B1E2B",
"S&	c #33232D",
"T&	c #3A282E",
"U&	c #3C292E",
"V&	c #3C282E",
"W&	c #3C272D",
"X&	c #3B242C",
"Y&	c #37202C",
"Z&	c #331E2C",
"`&	c #321E2C",
" *	c #341F2C",
".*	c #38222C",
"+*	c #3C252C",
"@*	c #3C282D",
"#*	c #38272D",
"$*	c #30212C",
"%*	c #291D2B",
"&*	c #51A5B8",
"**	c #97C3C7",
"=*	c #DBEDDD",
"-*	c #F4FEE8",
"      . + @ # $ % & * = - ; > , ' )   ! ~ { ] ^ / . ( _ : < [ < ",
"} } } | 1 2 3 4 5 6 7 8 9 0 a a a a a b c d e f g h } i j k l m ",
"n n n n o p q r s t u v w x y y z y A B C D E F G H o I J K K L ",
"m m m l M N O | 1 P 3 Q R S T T U T T V W X } i Y Z l `  ...+.@.",
"#.#.#.$.%.&.*.=.-.;.>.,.'.).!.!.!.!.!.~.{.].^./.(.#._.:.<.[.[.[.",
"@.@.@.+.}.|.1.k 2.3.4.5.6.7.8.8.8.8.8.9.0.a.b.c. ...+.d...e.f.g.",
"[.[.[.[.[.h.i.$.j.k.l.m.n.o.p.p.p.p.p.q.r.s.t.u.<.[.[.+...v.w.x.",
"y.z.y.A.B.d.d.+.C.D.E.F.G.H.I.I.J.I.J.K.L.M.N.O...e.f.P.g.Q.R.S.",
"T.U.V.W.X...+.[.Y.Z.`. +.+++@+@+#+@+@+$+%+&+*+=+-+v.w.;+>+R.,+& ",
"5 5 '+)+!+~+~+{+]+^+/+(+_+:+<+<+[+<+}+|+1+2+3+4+>.5+R.6+7+% % % ",
"8+r 9+0+a+b+c+d+e+f+g+h+i+j+k+l+l+m+l+n+o+p+q+r+s+5+,+& t+u+6+6+",
"} | 1 2 v+w+x+y+z+A+B+C+D+E+F+G+H+F+I+J+K+L+M+N+O+P+Q+R+S+5 5 '+",
"-.=.-.T+U+V+W+X+Y+Z+`+ @.@+@@@#@#@#@$@%@&@*@=@-@;@>@,@'@)@8+r 8+",
"2.k !@~@O {@]@^@/@(@_@:@<@[@}@|@1@2@3@4@5@6@7@8@9@0@a@b@c@h h h ",
"#.d@j.e@f@-.g@h@i@j@k@l@m@n@o@p@q@r@s@t@u@v@w@x@y@z@A@B@C@-.-.-.",
"@.+.}.|.D@E@F@G@H@I@J@K@L@M@N@O@P@Q@R@M@S@T@U@V@W@X@h i /.Z k 2.",
"[.] [.h.Y@Z@`@ #.#+#@###$#%#&#*#=#-#;#>#,#'#)#!#~#{#]#^#/##.(#_#",
"P.X.:#....{@<#[#}#|#1#2#3#4#5#6#7#8#9#0#a#b#c#d#e#f#g#h#i#....@.",
"= j#k#..+.] l#m#n#o#p#q#r#s#t#u#u#v#t#w#x#y#z#A#B#C#D#i.<.[.[.[.",
"E#F#G#H#I#J#K#L#M#N#O#P#Q#R#S#T#U#V#W#X#Y#Z#`# $.$+$@$@$+.e.f.P.",
"& ,+#$$$%$&$*$=$-$;$>$,$'$)$!$~${$]$^$/$($_$:$<$[$}$] ] +.v.|$;+",
"$ 1$2$3$4$5$6$7$8$9$0$a$b$c$d$e$f$g$h$i$j$k$l$m$n$o$p$q$r$s$t$% ",
"u$v$w$x$y$z$A$B$C$D$E$F$G$H$I$J$K$L$M$N$O$P$Q$R$Y.S$T$U$V$W$X$Y$",
"'+Z$`$ %h .%+%@%#%$%%%&%*%=%-%;%>%,%'%)%!%~%%%{%]%^%c@q /%(%_%:%",
"9+<%C@[%-.}%|%1%2%3%4%q+5%6%7%8%9%0%a%b%c%d%%%e%f%g%h%o$i%9+9+9+",
"j%k%Y l%Z 3.]+m%n%%%%%q+5%o%p%q%r%s%a%b%t%u%%%v%w%x%n$y%z%h A%h ",
"B%C%(._##.D%]+E%F%%%%%q+G%o%p%H%I%J%a%b%t%K%%%4%v%L%n$M%N%B%O%B%",
"2.P%i#....Q%R%S%T%U%4%V%W%X%Y%Z%`% &.&+&t%u%4%@&#&$&%&&&*&Z Z Z ",
"j.i.<.[.[.=&-&;&>&,&v%'&)&!&~&{&]&^&/&(&_&:&<&[&}&|&Q%1&i.2&_#2&",
"3&....e.f.4&5&6&7&>&8&9&0&a&b&c&d&e&f&g&h&i&j&k&^%l&m&n&o&p&p&p&",
"[.+.q&v.w.= r&s&t&u&v&w&x&y&z&A&B&C&D&E&F&G&H&I&J&K&3&L&M&N&O&N&",
"..d...P&Q&S.S.R&S&T&U&V&W&X&Y&Z&`& *.*+*@*U&U&#*$*%*&***=*    -*"};
