/* XPM */
static char * wall_xpm[] = {
"32 32 545 2",
"  	c #F5FFE8",
". 	c #F6FFE9",
"+ 	c #F4FEE7",
"@ 	c #D5E0D1",
"# 	c #8C9CA3",
"$ 	c #496684",
"% 	c #486584",
"& 	c #4C6784",
"* 	c #4C6985",
"= 	c #4D7D96",
"- 	c #4E99AE",
"; 	c #4AA3B8",
"> 	c #52A5B9",
", 	c #99C3C7",
"' 	c #DBEDDD",
") 	c #DAE4D4",
"! 	c #8F9FA4",
"~ 	c #506B86",
"{ 	c #6C8C9D",
"] 	c #C9DAD0",
"^ 	c #F5FEE8",
"/ 	c #F5FEE7",
"( 	c #DEF8DD",
"_ 	c #B0EDCB",
": 	c #92E7C0",
"< 	c #91E8C0",
"[ 	c #92E8C0",
"} 	c #E1FADF",
"| 	c #E2FBDF",
"1 	c #E1F9DE",
"2 	c #CEE4D0",
"3 	c #AABBB5",
"4 	c #8F9DA4",
"5 	c #7F909B",
"6 	c #6B7F91",
"7 	c #567089",
"8 	c #496E8A",
"9 	c #4B7B95",
"0 	c #59899E",
"a 	c #6F96A6",
"b 	c #89A8AE",
"c 	c #A0B9B4",
"d 	c #B0C4BA",
"e 	c #B8C7BF",
"f 	c #BCC9C0",
"g 	c #AFC0BB",
"h 	c #A6BCB6",
"i 	c #ABC1B8",
"j 	c #AAC1B8",
"k 	c #9CBBB2",
"l 	c #7FB1A9",
"m 	c #74BCAD",
"n 	c #80D3BA",
"o 	c #85D9BE",
"p 	c #B4EFCC",
"q 	c #B3EDCB",
"r 	c #BEE9CD",
"s 	c #C6D2C7",
"t 	c #556E88",
"u 	c #96A5A8",
"v 	c #DDE7D6",
"w 	c #D6E1D1",
"x 	c #8A9AA1",
"y 	c #5B8C9B",
"z 	c #63AEB2",
"A 	c #67B9B9",
"B 	c #7FD2BA",
"C 	c #75BBAC",
"D 	c #81B1A9",
"E 	c #9DBBB2",
"F 	c #AEC2B9",
"G 	c #B8C7BE",
"H 	c #BECAC2",
"I 	c #CEDACC",
"J 	c #EAF4E0",
"K 	c #E7F1DE",
"L 	c #CBD6CA",
"M 	c #A4B8B7",
"N 	c #6B96A6",
"O 	c #4E94A9",
"P 	c #64B9BA",
"Q 	c #64B8B9",
"R 	c #60ADB1",
"S 	c #5D8D9B",
"T 	c #59728A",
"U 	c #8C9CA2",
"V 	c #D6E1D2",
"W 	c #F4FEE8",
"X 	c #F2FDE7",
"Y 	c #CDDACD",
"Z 	c #7C8F9A",
"` 	c #4D8099",
" .	c #4FA5B8",
"..	c #4FA1B4",
"+.	c #4E93A8",
"@.	c #6D96A6",
"#.	c #A6BAB8",
"$.	c #C0CCC3",
"%.	c #CCD7CB",
"&.	c #E3F2E1",
"*.	c #C2DCD4",
"=.	c #9CB9BB",
"-.	c #678294",
";.	c #4D7B94",
">.	c #4EA3B8",
",.	c #4E9BB1",
"'.	c #4D8098",
").	c #7F929C",
"!.	c #CFDCCE",
"~.	c #F2FEE7",
"{.	c #F4FFE7",
"].	c #F4FFE8",
"^.	c #F1FCE6",
"/.	c #CEE4D9",
"(.	c #80B7C1",
"_.	c #4E93A9",
":.	c #4C748F",
"<.	c #4C6F8B",
"[.	c #4A96AC",
"}.	c #4A8FA7",
"|.	c #4B7A93",
"1.	c #6F8E96",
"2.	c #ABD3BF",
"3.	c #D0F5D7",
"4.	c #E8FBE2",
"5.	c #EBFCE3",
"6.	c #D4F6D9",
"7.	c #D3F6D9",
"8.	c #E3F3E1",
"9.	c #9CC6C8",
"0.	c #69ADBC",
"a.	c #4C6885",
"b.	c #4C7B95",
"c.	c #4C7892",
"d.	c #5D8A91",
"e.	c #81CAB0",
"f.	c #A9ECC8",
"g.	c #D9F7DB",
"h.	c #F1FEE6",
"i.	c #E3FADF",
"j.	c #B3EECB",
"k.	c #B0EECA",
"l.	c #DEF9DD",
"m.	c #F2FEE6",
"n.	c #D4E8DB",
"o.	c #85B9C2",
"p.	c #4FA3B7",
"q.	c #4FA2B6",
"r.	c #4E92A8",
"s.	c #93A1A6",
"t.	c #8B9AA1",
"u.	c #6A7F91",
"v.	c #9DEAC4",
"w.	c #B7EFCD",
"x.	c #A1EBC5",
"y.	c #BAF0CE",
"z.	c #D3F6D8",
"A.	c #4E9BB0",
"B.	c #4E8CA3",
"C.	c #4C7D96",
"D.	c #4A6C89",
"E.	c #D8E3D3",
"F.	c #AAECC8",
"G.	c #F3FFE7",
"H.	c #E4FAE0",
"I.	c #B9EFCE",
"J.	c #9AE9C2",
"K.	c #95E8C1",
"L.	c #F3FEE7",
"M.	c #EFFBE6",
"N.	c #CEE4D8",
"O.	c #82B8C1",
"P.	c #4E94AA",
"Q.	c #4D7590",
"R.	c #4B6785",
"S.	c #D3EBD4",
"T.	c #95ABAA",
"U.	c #9EEAC4",
"V.	c #EEFDE4",
"W.	c #DCF8DC",
"X.	c #C5F2D3",
"Y.	c #A5EBC6",
"Z.	c #C0DBD4",
"`.	c #9AC4C8",
" +	c #6AADBC",
".+	c #92A1A6",
"++	c #B6F0CD",
"@+	c #AAE1C4",
"#+	c #7DA6A2",
"$+	c #ABEDC9",
"%+	c #DAF7DB",
"&+	c #F0FEE6",
"*+	c #E3FAE0",
"=+	c #B8EFCD",
"-+	c #F3FDE7",
";+	c #EEFAE5",
">+	c #EFFBE5",
",+	c #D8EBDC",
"'+	c #95C2C6",
")+	c #6BAEBD",
"!+	c #6BA1B0",
"~+	c #6A889A",
"{+	c #96A6A8",
"]+	c #C6D1C6",
"^+	c #D3DED0",
"/+	c #86DABE",
"(+	c #7DCCB6",
"_+	c #659B9B",
":+	c #CFF5D7",
"<+	c #E9FCE2",
"[+	c #EDFDE4",
"}+	c #DDF8DD",
"|+	c #EEFDE5",
"1+	c #E4F3E1",
"2+	c #C5DFD5",
"3+	c #E8F6E3",
"4+	c #E9F6E3",
"5+	c #D1E6DA",
"6+	c #C7E0D6",
"7+	c #C7DBD1",
"8+	c #C7D5CA",
"9+	c #BBCAC0",
"0+	c #A8BCB5",
"a+	c #BBD2C3",
"b+	c #60AFB2",
"c+	c #558A99",
"d+	c #91E7C0",
"e+	c #8FE4BF",
"f+	c #8EE4BF",
"g+	c #91E6C0",
"h+	c #ACEDC9",
"i+	c #EFFDE5",
"j+	c #8CBDC4",
"k+	c #94C3C6",
"l+	c #D9EEDC",
"m+	c #D0DCCE",
"n+	c #7E8F9B",
"o+	c #7EA8A3",
"p+	c #4E9CB1",
"q+	c #4D8198",
"r+	c #8CE1BF",
"s+	c #7BCFBD",
"t+	c #78CBBC",
"u+	c #89DEBF",
"v+	c #B6EFCD",
"w+	c #7EBEC0",
"x+	c #B1E4CC",
"y+	c #ECFCE4",
"z+	c #659C9C",
"A+	c #549FB3",
"B+	c #668FA1",
"C+	c #779C9D",
"D+	c #88CFB3",
"E+	c #9CEAC3",
"F+	c #95DFC2",
"G+	c #6FBDBC",
"H+	c #62B5BA",
"I+	c #83D8BE",
"J+	c #ADEDC9",
"K+	c #DAF8DB",
"L+	c #ECFBE4",
"M+	c #EBF9E4",
"N+	c #EAF7E3",
"O+	c #87BBC3",
"P+	c #68BBBA",
"Q+	c #87DCBE",
"R+	c #B3EECC",
"S+	c #DFF9DE",
"T+	c #EBF8E4",
"U+	c #798D99",
"V+	c #558B9A",
"W+	c #4E98AD",
"X+	c #6FA7B5",
"Y+	c #ADC6C3",
"Z+	c #C2D9C8",
"`+	c #A7E2C3",
" @	c #C4F2D2",
".@	c #C4E9D4",
"+@	c #8AC1C3",
"@@	c #B6EFCC",
"#@	c #BBE9D0",
"$@	c #B0D7CD",
"%@	c #AACDCC",
"&@	c #98C3C7",
"*@	c #6CAEBD",
"=@	c #A2EBC5",
"-@	c #BAE7CF",
";@	c #AED5CD",
">@	c #93B4B8",
",@	c #638094",
"'@	c #4D8199",
")@	c #7BA4AE",
"!@	c #C9E2D5",
"~@	c #E1F9DF",
"{@	c #BEF1D0",
"]@	c #B2EDCB",
"^@	c #D6F3DA",
"/@	c #D5E9DB",
"(@	c #94C1C6",
"_@	c #68B6BB",
":@	c #91DAC2",
"<@	c #9FEAC4",
"[@	c #97E9C1",
"}@	c #85DABE",
"|@	c #65B8BA",
"1@	c #4FA4B8",
"2@	c #82D6BE",
"3@	c #60B3BA",
"4@	c #4C6986",
"5@	c #6A959E",
"6@	c #A4D7C3",
"7@	c #C3F2D2",
"8@	c #CFF0D8",
"9@	c #B8DBD0",
"0@	c #9BC5C8",
"a@	c #73B1BE",
"b@	c #7DB9C0",
"c@	c #BDE3D1",
"d@	c #CAF4D5",
"e@	c #A8ECC8",
"f@	c #5A8792",
"g@	c #7AC3AE",
"h@	c #A1E4C3",
"i@	c #D2F3D8",
"j@	c #D9EFDC",
"k@	c #97C5C7",
"l@	c #59A7B9",
"m@	c #6EAFBD",
"n@	c #9EC7C9",
"o@	c #E3F9E0",
"p@	c #B1E9CB",
"q@	c #8DE2BF",
"r@	c #90E6C0",
"s@	c #5DA8BA",
"t@	c #71B0BE",
"u@	c #87C6C1",
"v@	c #9CE1C5",
"w@	c #96E9C1",
"x@	c #688492",
"y@	c #88AEA8",
"z@	c #9ACCBA",
"A@	c #B1E5CA",
"B@	c #B0E5CC",
"C@	c #7FC0C0",
"D@	c #77B3BF",
"E@	c #B4D3CF",
"F@	c #D6EADC",
"G@	c #E0F3DF",
"H@	c #A2D4C9",
"I@	c #77CABC",
"J@	c #8ADFBF",
"K@	c #BAD8D2",
"L@	c #D0E9D9",
"M@	c #C7F3D3",
"N@	c #A3EBC6",
"O@	c #4E6A86",
"P@	c #8999A1",
"Q@	c #C2CEC4",
"R@	c #CFE5D3",
"S@	c #B4E8CB",
"T@	c #93E0C2",
"U@	c #74C4BC",
"V@	c #89C2C2",
"W@	c #CDE9D8",
"X@	c #DEEFDE",
"Y@	c #96C2C7",
"Z@	c #64B7BA",
"`@	c #6DC0BB",
" #	c #59ADB9",
".#	c #52A7B8",
"+#	c #90C1C5",
"@#	c #D4ECDA",
"##	c #B9F0CE",
"$#	c #92D9C2",
"%#	c #66B4BB",
"&#	c #AEC0B9",
"*#	c #D3E9D3",
"=#	c #DFFADE",
"-#	c #B1E9CC",
";#	c #89D8C0",
">#	c #8EDAC1",
",#	c #ADE8CA",
"'#	c #E7FBE1",
")#	c #8EE3BF",
"!#	c #84D9BE",
"~#	c #75C9BC",
"{#	c #5DB1B9",
"]#	c #7ABDBF",
"^#	c #ACE2CA",
"/#	c #BCE2D1",
"(#	c #79B7BF",
"_#	c #6A7E91",
":#	c #D7E2D2",
"<#	c #CEE6D1",
"[#	c #BFEDCE",
"}#	c #B8F1CD",
"|#	c #A0E2C6",
"1#	c #8ADBBF",
"2#	c #90E4C0",
"3#	c #96E8C1",
"4#	c #ADEDCA",
"5#	c #D6F7D9",
"6#	c #D7EEDB",
"7#	c #A5CCCB",
"8#	c #89C5C2",
"9#	c #9EE0C5",
"0#	c #98E9C2",
"a#	c #63B4B8",
"b#	c #80CFB8",
"c#	c #B0E6C8",
"d#	c #DBF7DC",
"e#	c #9AC6C7",
"f#	c #75B5BE",
"g#	c #64B2BB",
"h#	c #589DAA",
"i#	c #4F788F",
"j#	c #91A0A5",
"k#	c #CCF1D6",
"l#	c #A2E2C6",
"m#	c #86DBBE",
"n#	c #7BCEBC",
"o#	c #6EC1BB",
"p#	c #76C9BC",
"q#	c #84D8BE",
"r#	c #96E3C2",
"s#	c #AFEBCA",
"t#	c #C0EED1",
"u#	c #CBE9D7",
"v#	c #D3EADA",
"w#	c #D8F3DB",
"x#	c #CBF4D5",
"y#	c #A8ECC7",
"z#	c #66AAB5",
"A#	c #86B7B1",
"B#	c #ABD8C1",
"C#	c #BCEECE",
"D#	c #BBF0CF",
"E#	c #C2EDD2",
"F#	c #CDE8D7",
"G#	c #BBE0D1",
"H#	c #92D7C3",
"I#	c #72B9AD",
"J#	c #578290",
"K#	c #97ADAB",
"L#	c #B7F0CD",
"M#	c #A4E2C8",
"N#	c #7EC8BE",
"O#	c #64BABA",
"P#	c #5EB3B9",
"Q#	c #54A9B8",
"R#	c #55AAB8",
"S#	c #60B5B9",
"T#	c #6DC2BA",
"U#	c #82D7BE",
"V#	c #A8E9C8",
"W#	c #D6F6D9",
"X#	c #DAF8DC",
"Y#	c #BBF0CE",
"Z#	c #9DDFC5",
"`#	c #84C1BF",
" $	c #99BFC3",
".$	c #C7D8CE",
"+$	c #C3E6CD",
"@$	c #A3EAC5",
"#$	c #99EAC2",
"$$	c #99E9C2",
"%$	c #B4EECC",
"&$	c #D1F4D8",
"*$	c #A8EBC7",
"=$	c #8BD0B5",
"-$	c #72A09D",
";$	c #8BB7AB",
">$	c #79CCBD",
",$	c #56AAB9",
"'$	c #87D2C0",
")$	c #ADEACA",
"!$	c #D5F3DA",
"~$	c #C8E8D6",
"{$	c #CCE9D7",
"]$	c #DCF5DD",
"^$	c #C9F0D4",
"/$	c #9FE4C5",
"($	c #8BDFBF",
"_$	c #89DFBF",
":$	c #97DFC3",
"<$	c #AFE9CB",
"[$	c #A7E4C8",
"}$	c #8EDBC0",
"|$	c #83D5B9",
"1$	c #7AC4B1",
"2$	c #7CC9B4",
"3$	c #65BABA",
"4$	c #5FB4B9",
"5$	c #4DA3B8",
"6$	c #62B7B9",
"7$	c #81D6BD",
"8$	c #90E3C0",
"9$	c #97E7C2",
"0$	c #B2EFCC",
"a$	c #DBF8DC",
"b$	c #C5F3D3",
"c$	c #B8F1CE",
"d$	c #A5E3C8",
"e$	c #7FC9BF",
"f$	c #6FC3BB",
"g$	c #7BCFBC",
"h$	c #68BDBA",
"i$	c #64BAB9",
"j$	c #50A4B8",
"k$	c #4FA1B5",
"l$	c #4FA1B6",
"m$	c #55A9B9",
"n$	c #74C7BC",
"o$	c #83D7BE",
"p$	c #96E0C2",
"q$	c #AAE5C9",
"r$	c #A9E3C9",
"s$	c #92DDC2",
"t$	c #87DBBE",
"u$	c #7ACDBD",
"v$	c #58ACB9",
"w$	c #66B9BA",
"x$	c #72BBBD",
"y$	c #86BDC2",
"z$	c #91C0C5",
"A$	c #4EA4B8",
"B$	c #4FA3B8",
"C$	c #4E9AAF",
"D$	c #4D879E",
"E$	c #4D7C95",
"F$	c #4E8AA1",
"G$	c #4F9CB1",
"H$	c #65BBBA",
"I$	c #4AA2B7",
"J$	c #88BBC3",
"K$	c #D6E9DC",
"L$	c #D7EADC",
"M$	c #4FA5B9",
"N$	c #4E95AB",
"O$	c #4D7993",
"P$	c #4D7E97",
"Q$	c #50A5B8",
"R$	c #4AA3B7",
"S$	c #51A5B8",
"T$	c #97C3C7",
"      . + @ # $ % & * = - ; > , ' ) ! ~ ~ ~ ~ { ] ^ / ( _ : < [ ",
"} } } | 1 2 3 4 5 6 7 8 9 0 a b c d e f f f f g h i j k l m n o ",
"p p p p q r 2 s # t t t t t t t t u v         w x t t t t y z A ",
"o o o B C D E F G H H H H H H H H I J         K L H H H H M N O ",
"P P Q R S T T U V                                     W X Y Z ` ",
" ...+.@.#.$.$.%.K                                     &.*.=.-.;.",
">.,.'.).!.~.{.            ].~.~.].                + ^./.(._.:.<.",
"[.}.|.1.2.3.4.            5.6.7.5.                8.*.9.0._.:.a.",
"b.c.<.d.e.f.g.h.{.        i.j.k.l.m.].            n.o.p.q.r.:.a.",
"s.t.u.d.e.v.w.3.4.        i.j.x.y.z.5.            n.o.A.B.C.D.$ ",
"E.L ! d.e.[ [ F.g.h.G.    H.I.J.K.j.i.        L.M.N.O.P.Q.a.R.R.",
"} S.T.d.e.[ [ U.w.3.4.    V.W.X.Y.j.i.        8.Z.`. +P.Q.u.t..+",
"++@+#+d.e.[ [ [ [ $+%+&+G.    *+=+y.H.-+;+>+L.,+'+)+)+!+~+{+]+^+",
"/+(+_+d.e.[ [ [ [ U.w.:+<+    [+}+}+|+1+Z.2+3+4+5+6+6+7+8+9+0+a+",
"P b+c+d.e.[ [ d+e+f+g+h+%+i+L.        ,+j+k+l+&+{.        m+n+o+",
" .p+q+d.e.[ [ r+s+t+u+U.v+:+<+        ,+j+w+x+z.y+        m+n+z+",
">.A+B+C+D+K.E+F+G+H+I+[ [ J+K+L+M+N+N+/.O+P+Q+R+S+L+T+N+N+8+U+V+",
"W+X+Y+Z+`+x. @.@+@H+I+[ [ U.@@#@$@%@%@&@*@P+Q+=@=+-@;@%@%@>@,@'@",
"= )@!@~@{@]@^@/@(@_@:@<@[@[ [ }@|@1@1@1@1@P+Q+[ [ 2@3@1@1@_.:.` ",
"4@5@6@7@3.8@9@0@a@b@c@d@e@[ [ }@|@1@1@1@1@P+Q+[ [ 2@3@1@1@_.:.;.",
"& f@g@h@i@j@k@l@m@n@' o@p@q@r@}@|@1@1@s@t@u@v@<@w@2@3@1@1@_.:.<.",
"$ x@y@z@A@B@C@D@E@F@T+G@H@I@J@}@|@1@1@O.K@L@^@M@N@2@3@1@1@_.:.R.",
"O@P@Q@R@S@T@U@V@W@y+~.X@Y@Z@o Q+`@ #.#+#@#[+L.~@##$#%#1@1@_.:.R.",
".+&#*#=#z.-#;#>#,#d@'#X@Y@Z@o )#!#~#{#]#^#:+5.[+S+/#(#1@1@_.:._#",
":#<#[#}#++|#1#2#3#4#5#6#7#8#9#=@0#o Z@a#b#c#d#<+<+L@e#f#g#h#i#j#",
"~@k#l#m#}@n#o#p#q#r#s#t#u#v#w#x#y#o Z@z#A#B#C#D#D#E#F#G#H#I#J#K#",
"L#M#N#O#P P#Q#R#S#T#U#V#W#4.4.X#Y#Z#`# $.$+$@$#$$$%$d#&$*$=$-$;$",
"/+>$3@1@1@ . . . .,$Z@'$)$y.y.7@6.!$~${$]$^$/$($_$:$<$[$}$|$1$2$",
"3$4$Q#>.>.>.1@1@>.5$>.6$7$8$9$0$a$S+b$c$L#d$e$3$O#f$7$g$h$i$O#i$",
"j$1@1@k$A.W+W+W+W+p+l$m$Z@n$o$p$q$r$s$t$/+u$3@1@1@v$w$x$y$z$z$z$",
">.A$B$C$D$= E$E$= F$G$A$A$R#S#3$3$3$3$H$3$4$Q#>.5$I$j$J$Z.K$L$K$",
"1@M$1@N$O$a.a.a.4@P$- 1@1@1@Q$Q$Q$Q$Q$Q$Q$j$1@1@1@R$S$T$'     W "};
