/* XPM */
static char * wall_xpm[] = {
"16 16 5 1",
" 	c #C8D45D",
".	c #181425",
"+	c #686F99",
"@	c #A3A7C2",
"#	c #404973",
"    ........    ",
"   .+@@@@@@+.   ",
"  .+@@@@@@@@+.  ",
" .+@@@@@@@@@@+. ",
".+@@@@@@@@@@@@+.",
".+@@@@@@@@@@@@+.",
".#+@@@@@@@@@@+#.",
".##+@@@@@@@@+##.",
".###+@@@@@@+###.",
".###+@@@@@@+###.",
".####++++++####.",
".####++++++####.",
" .###++++++###. ",
"  .##++++++##.  ",
"   .#++++++#.   ",
"    ........    "};
